<svg width="64" height="64" viewBox="0 0 64 64" fill="none" xmlns="http://www.w3.org/2000/svg">
<path fill-rule="evenodd" clip-rule="evenodd" d="M31.9999 9.33341C23.8997 9.33341 17.3332 15.8999 17.3332 24.0001C17.3332 32.1002 23.9 38.6667 32.0002 38.6667C40.1003 38.6667 46.6665 32.1003 46.6665 24.0001C46.6665 15.8999 40.1001 9.33341 31.9999 9.33341ZM39.4863 39.6379C45.3112 36.8442 49.3332 30.8919 49.3332 24.0001C49.3332 14.4271 41.5728 6.66675 31.9999 6.66675C22.4269 6.66675 14.6665 14.4271 14.6665 24.0001C14.6665 30.8918 18.6888 36.8441 24.5137 39.6378C22.0101 40.2984 19.5942 41.2903 17.3323 42.5957C12.8725 45.1697 9.16857 48.872 6.59262 53.3307C6.22425 53.9684 6.44251 54.7839 7.08013 55.1522C7.71775 55.5206 8.53326 55.3024 8.90164 54.6647C11.2435 50.6112 14.6108 47.2454 18.6653 44.9053C22.7199 42.5653 27.3188 41.3334 32.0002 41.3334C36.6815 41.3335 41.2804 42.5654 45.3349 44.9056C49.3894 47.2458 52.7566 50.6117 55.0984 54.6652C55.4668 55.3028 56.2823 55.5211 56.9199 55.1528C57.5575 54.7844 57.7758 53.9689 57.4074 53.3313C54.8316 48.8725 51.1277 45.1701 46.6679 42.596C44.406 41.2905 41.99 40.2985 39.4863 39.6379Z" fill="#FCFCFE"/>
</svg>
