<svg width="24" height="24" viewBox="0 0 24 24" fill="none" xmlns="http://www.w3.org/2000/svg">
<g clip-path="url(#clip0_2143_48051)">
<path d="M21.6 6.85292L16.1692 6.8104L13.3652 4.99468L10.6359 0L21.6 6.85292Z" fill="#F0700B"/>
<path d="M13.3652 4.99468V11.9988L13.3618 12L10.651 10.306L10.6359 10.2965V0L13.3652 4.99468Z" fill="#FDB700"/>
<path d="M21.6 6.85292L16.1692 10.2457L13.3653 11.9988V8.58712L16.1692 6.81039L21.6 6.85292Z" fill="#DE0053"/>
<path d="M5.12708 10.3071V13.8051L2.40002 18.8517V5.14825L5.12708 10.3071Z" fill="#5A55A5"/>
<path d="M10.601 13.8004L5.12708 17.1471L2.40002 18.8517L5.12708 13.8051L7.87742 12.0626L10.601 13.8004Z" fill="#984698"/>
<path d="M13.3653 15.5641V19.1305L10.6359 24L10.6021 13.8015L13.3653 15.5641Z" fill="#60B421"/>
<path d="M21.6 17.1483L10.6359 24L13.3652 19.1305L16.1692 17.3538L21.6 17.1483Z" fill="#008033"/>
<path d="M21.6 17.1483L16.1692 17.3538L13.3653 15.5641L10.6021 13.8015L10.601 13.8004L7.87742 12.0626L5.12708 10.3071L2.40002 5.14825L10.6359 10.2965L10.6511 10.306L13.3618 12L13.3653 12.0024L16.1692 13.7543L19.0313 15.5428L21.6 17.1483Z" fill="#1686CE"/>
</g>
<defs>
<clipPath id="clip0_2143_48051">
<rect width="24" height="24" fill="white"/>
</clipPath>
</defs>
</svg>
