<svg width="15" height="32" viewBox="0 0 15 32" fill="none" xmlns="http://www.w3.org/2000/svg">
<path fill-rule="evenodd" clip-rule="evenodd" d="M8.83636 17.9286C12.4636 17.9286 15 15.6724 15 12.429C15 9.18571 12.4636 7 8.83636 7H1.875C1.5926 7 1.36364 7.20389 1.36364 7.45536V15.2963V17.9286V19.1429H0.511364C0.228963 19.1429 0 19.3467 0 19.5982V21.1161C0 21.3675 0.228963 21.5714 0.511364 21.5714H1.36364V23.5446C1.36364 23.7961 1.5926 24 1.875 24H4.37045C4.65286 24 4.88182 23.7961 4.88182 23.5446V21.5714H9.03409C9.31649 21.5714 9.54545 21.3675 9.54545 21.1161V19.5982C9.54545 19.3467 9.31649 19.1429 9.03409 19.1429H4.88182V17.9286H8.83636ZM8.23636 9.60874H4.88182V15.2963H8.18182C10.2273 15.2963 11.4273 14.1682 11.4273 12.429C11.4273 10.7134 10.2273 9.60874 8.23636 9.60874Z" fill="#FCFCFE"/>
</svg>
