<svg width="11" height="26" viewBox="0 0 11 26" fill="none" xmlns="http://www.w3.org/2000/svg">
<path fill-rule="evenodd" clip-rule="evenodd" d="M6.48 14.3571C9.14 14.3571 11 12.6318 11 10.1516C11 7.67143 9.14 6 6.48 6H1.375C1.16791 6 1 6.15591 1 6.34821V12.3442V14.3571V15.2857H0.375C0.167906 15.2857 0 15.4416 0 15.6339V16.7946C0 16.9869 0.167906 17.1429 0.375 17.1429H1V18.6518C1 18.8441 1.16791 19 1.375 19H3.205C3.41209 19 3.58 18.8441 3.58 18.6518V17.1429H6.625C6.83209 17.1429 7 16.9869 7 16.7946V15.6339C7 15.4416 6.83209 15.2857 6.625 15.2857H3.58V14.3571H6.48ZM6.04 7.99492H3.58V12.3442H6C7.5 12.3442 8.38 11.4816 8.38 10.1516C8.38 8.83963 7.5 7.99492 6.04 7.99492Z" fill="#FCFCFE"/>
</svg>
