<svg width="11" height="28" viewBox="0 0 11 28" fill="none" xmlns="http://www.w3.org/2000/svg">
<path fill-rule="evenodd" clip-rule="evenodd" d="M6.48 16C9.14 16 11 14.1419 11 11.471C11 8.8 9.14 7 6.48 7H1.375C1.16791 7 1 7.16791 1 7.375V13.8323V16V17H0.375C0.167906 17 0 17.1679 0 17.375V18.625C0 18.8321 0.167906 19 0.375 19H1V20.625C1 20.8321 1.16791 21 1.375 21H3.205C3.41209 21 3.58 20.8321 3.58 20.625V19H6.625C6.83209 19 7 18.8321 7 18.625V17.375C7 17.1679 6.83209 17 6.625 17H3.58V16H6.48ZM6.04 9.14838H3.58V13.8323H6C7.5 13.8323 8.38 12.9032 8.38 11.471C8.38 10.0581 7.5 9.14838 6.04 9.14838Z" fill="#FCFCFE"/>
</svg>
