<svg width="24" height="24" viewBox="0 0 24 24" fill="none" xmlns="http://www.w3.org/2000/svg">
<path d="M18.3435 9.8166V18.2541L4.39764 22.8917L15.6741 15.4501V9.8166H18.3435Z" fill="#D6AB05"/>
<path d="M21 9.8166V24H4.39765C3.6262 24 3 23.3857 3 22.6288V10.8711C3 10.0208 3.30826 9.53002 4.39765 8.70827L15.6741 0V15.4501L4.39765 22.8917L18.3435 18.2541V9.8166H21Z" fill="#FFCC00"/>
<path d="M12.444 11.1162C13.1096 10.4632 13.2762 9.56799 12.8161 9.11662C12.356 8.66524 11.4434 8.82865 10.7779 9.4816C10.1123 10.1345 9.94574 11.0298 10.4058 11.4812C10.8659 11.9325 11.7785 11.7691 12.444 11.1162Z" fill="#030303"/>
</svg>
