<svg width="17" height="34" viewBox="0 0 17 34" fill="none" xmlns="http://www.w3.org/2000/svg">
<path fill-rule="evenodd" clip-rule="evenodd" d="M10.0145 19.3929C14.1255 19.3929 17 16.9376 17 13.4081C17 9.87857 14.1255 7.5 10.0145 7.5H2.125C1.80495 7.5 1.54545 7.72188 1.54545 7.99554V16.5283V19.3929V20.7143H0.579545C0.259491 20.7143 0 20.9362 0 21.2098V22.8616C0 23.1353 0.259491 23.3571 0.579545 23.3571H1.54545V25.5045C1.54545 25.7781 1.80495 26 2.125 26H4.95318C5.27324 26 5.53273 25.7781 5.53273 25.5045V23.3571H10.2386C10.5587 23.3571 10.8182 23.1353 10.8182 22.8616V21.2098C10.8182 20.9362 10.5587 20.7143 10.2386 20.7143H5.53273V19.3929H10.0145ZM9.33455 10.3389H5.53273V16.5283H9.27273C11.5909 16.5283 12.9509 15.3007 12.9509 13.4081C12.9509 11.541 11.5909 10.3389 9.33455 10.3389Z" fill="#FCFCFE"/>
</svg>
