<svg width="40" height="40" viewBox="0 0 40 40" fill="none" xmlns="http://www.w3.org/2000/svg">
<g id="icon black">
<path id="Vector" d="M19.9999 36.667C29.2047 36.667 36.6666 33.3092 36.6666 29.167C36.6666 27.0559 34.7283 25.1486 31.6089 23.7856C29.7055 27.2787 26.8028 30.2895 23.1158 31.8652C21.134 32.7121 18.8659 32.7121 16.8841 31.8652C13.197 30.2895 10.2944 27.2787 8.39089 23.7856C5.27151 25.1486 3.33325 27.0559 3.33325 29.167C3.33325 33.3092 10.7952 36.667 19.9999 36.667Z" fill="#242625"/>
<path id="Vector_2" fill-rule="evenodd" clip-rule="evenodd" d="M8.33325 14.1912C8.33325 8.19467 13.5566 3.3335 19.9999 3.3335C26.4432 3.3335 31.6666 8.19467 31.6666 14.1912C31.6666 20.1408 27.943 27.0834 22.1334 29.5661C20.779 30.1449 19.2208 30.1449 17.8665 29.5661C12.0568 27.0834 8.33325 20.1408 8.33325 14.1912ZM19.9999 18.3335C21.8409 18.3335 23.3333 16.8411 23.3333 15.0002C23.3333 13.1592 21.8409 11.6668 19.9999 11.6668C18.159 11.6668 16.6666 13.1592 16.6666 15.0002C16.6666 16.8411 18.159 18.3335 19.9999 18.3335Z" fill="#EA6852"/>
</g>
</svg>
