<svg width="32" height="32" viewBox="0 0 32 32" fill="none" xmlns="http://www.w3.org/2000/svg">
<g id="icon black">
<path id="Vector" fill-rule="evenodd" clip-rule="evenodd" d="M16 2.6665C10.109 2.6665 5.33333 8.00328 5.33333 13.9998C5.33333 19.9494 8.73777 26.4164 14.0494 28.8991C15.2877 29.4779 16.7123 29.4779 17.9506 28.8991C23.2622 26.4164 26.6667 19.9494 26.6667 13.9998C26.6667 8.00328 21.891 2.6665 16 2.6665ZM16 15.9998C17.4728 15.9998 18.6667 14.8059 18.6667 13.3332C18.6667 11.8604 17.4728 10.6665 16 10.6665C14.5272 10.6665 13.3333 11.8604 13.3333 13.3332C13.3333 14.8059 14.5272 15.9998 16 15.9998Z" fill="#EA6852"/>
</g>
</svg>
