<svg xmlns="http://www.w3.org/2000/svg" viewBox="0 0 301.63 150.89">
  <defs>
    <style>
      .cls-1 {
        fill: #fcf2f8;
      }

      .cls-2 {
        fill: #fcf2fa;
      }

      .cls-3 {
        fill: #fcf1ec;
      }

      .cls-4 {
        fill: #788c9f;
      }

      .cls-5 {
        fill: #cfb3bf;
      }

      .cls-6 {
        fill: #95b3c8;
      }

      .cls-7 {
        fill: #8291a1;
      }

      .cls-8 {
        fill: #dcc6cf;
      }

      .cls-9 {
        fill: #a4c6d9;
      }

      .cls-10 {
        fill: #888384;
      }

      .cls-11 {
        fill: #958a8d;
      }

      .cls-12 {
        fill: #8c867f;
      }

      .cls-13 {
        fill: #7f848a;
      }

      .cls-14 {
        fill: #898683;
      }

      .cls-15 {
        fill: #888;
      }

      .cls-16 {
        fill: #8598ad;
      }

      .cls-17 {
        fill: #8d878b;
      }

      .cls-18 {
        fill: #85807b;
      }

      .cls-19 {
        fill: #8e867a;
      }

      .cls-20 {
        fill: #a09191;
      }

      .cls-21 {
        fill: #768a97;
      }

      .cls-22 {
        fill: #827a79;
      }

      .cls-23 {
        fill: #919085;
      }

      .cls-24 {
        fill: #e3d2dc;
      }

      .cls-25 {
        fill: #91b2bf;
      }

      .cls-26 {
        fill: #848485;
      }

      .cls-27 {
        fill: #898578;
      }

      .cls-28 {
        fill: #8b7474;
      }

      .cls-29 {
        fill: #858a8f;
      }

      .cls-30 {
        fill: #d7bcc3;
      }

      .cls-31 {
        fill: #919499;
      }

      .cls-32 {
        fill: #b9a0a1;
      }

      .cls-33 {
        fill: #807f82;
      }

      .cls-34 {
        fill: #929086;
      }

      .cls-35 {
        fill: #94b5c4;
      }

      .cls-36 {
        fill: #818e93;
      }

      .cls-37 {
        fill: #8a857b;
      }

      .cls-38 {
        fill: #b69496;
      }

      .cls-39 {
        fill: #dfc4ca;
      }

      .cls-40 {
        fill: #c29da0;
      }

      .cls-41 {
        fill: #bca0a4;
      }

      .cls-42 {
        fill: #b69ca0;
      }

      .cls-43 {
        fill: #b99596;
      }

      .cls-44 {
        fill: #af9091;
      }

      .cls-45 {
        fill: #b99b9a;
      }

      .cls-46 {
        fill: #be9da1;
      }

      .cls-47 {
        fill: #a28187;
      }

      .cls-48 {
        fill: #cfaeb5;
      }

      .cls-49 {
        fill: #89646b;
      }

      .cls-50 {
        fill: #b0909d;
      }

      .cls-51 {
        fill: #9e7983;
      }

      .cls-52 {
        fill: #a88a8a;
      }

      .cls-53 {
        fill: #ab8586;
      }

      .cls-54 {
        fill: #8f8178;
      }

      .cls-55 {
        fill: #a88089;
      }

      .cls-56 {
        fill: #a38587;
      }

      .cls-57 {
        fill: #d7f1f8;
      }

      .cls-58 {
        fill: #d9c1ee;
      }

      .cls-59 {
        fill: #bbc7f4;
      }

      .cls-60 {
        fill: #efc8de;
      }

      .cls-61 {
        fill: #bdb7bd;
      }

      .cls-62 {
        fill: #ecd6cb;
      }

      .cls-63 {
        fill: #eec9d4;
      }

      .cls-64 {
        fill: #d2c7e5;
      }

      .cls-65 {
        fill: #fce6f5;
      }

      .cls-66 {
        fill: #fcfaf9;
      }

      .cls-67 {
        fill: #f3d8ed;
      }

      .cls-68 {
        fill: #fcfaf8;
      }

      .cls-69 {
        fill: #f9edf5;
      }

      .cls-70 {
        fill: #f8eaf2;
      }

      .cls-71 {
        fill: #dbbec7;
      }

      .cls-72 {
        fill: #f9ebd2;
      }

      .cls-73 {
        fill: #fce4cc;
      }

      .cls-74 {
        fill: #fcf2f5;
      }

      .cls-75 {
        fill: #f7e9c5;
      }

      .cls-76 {
        fill: #c6a7b0;
      }

      .cls-77 {
        fill: #c3f4fb;
      }

      .cls-78 {
        fill: #c5f0fa;
      }

      .cls-79 {
        fill: #bcf5fb;
      }

      .cls-80 {
        fill: #b6f5fb;
      }

      .cls-81 {
        fill: #80858f;
      }

      .cls-82 {
        fill: #878c8e;
      }

      .cls-83 {
        fill: #86919c;
      }

      .cls-84 {
        fill: #c7f3fc;
      }

      .cls-85 {
        fill: #889bab;
      }

      .cls-86 {
        fill: #cdf4f9;
      }

      .cls-87 {
        fill: #908b8f;
      }

      .cls-88 {
        fill: #e7f7fb;
      }

      .cls-89 {
        fill: #def7fc;
      }

      .cls-90 {
        fill: #c7eff9;
      }

      .cls-91 {
        fill: #939fac;
      }

      .cls-92 {
        fill: #b4f3f9;
      }

      .cls-93 {
        fill: #bae8f0;
      }

      .cls-94 {
        fill: #aeeef9;
      }

      .cls-95 {
        fill: #a5e2f6;
      }

      .cls-96 {
        fill: #bde9fc;
      }

      .cls-97 {
        fill: #7dc5e0;
      }

      .cls-98 {
        fill: #d0c4f6;
      }

      .cls-99 {
        fill: #ebc2ef;
      }

      .cls-100 {
        fill: #e1c2f0;
      }

      .cls-101 {
        fill: #cde7fd;
      }

      .cls-102 {
        fill: #d4e5fb;
      }

      .cls-103 {
        fill: #f7c3d6;
      }

      .cls-104 {
        fill: #f5c4e3;
      }

      .cls-105 {
        fill: #f3c0e8;
      }

      .cls-106 {
        fill: #f9c3cb;
      }

      .cls-107 {
        fill: #f6c9c0;
      }

      .cls-108 {
        fill: #eed2f3;
      }

      .cls-109 {
        fill: #f9ecf1;
      }

      .cls-110 {
        fill: #f3eafa;
      }

      .cls-111 {
        fill: #fdf1fc;
      }

      .cls-112 {
        fill: #faf1f7;
      }

      .cls-113 {
        fill: #e9d8ee;
      }

      .cls-114 {
        fill: #f9ece0;
      }

      .cls-115 {
        fill: #fef7e0;
      }

      .cls-116 {
        fill: #fdf4d8;
      }

      .cls-117 {
        fill: #fbe7d6;
      }

      .cls-118 {
        fill: #fbe6da;
      }

      .cls-119 {
        fill: #f4c9ca;
      }

      .cls-120 {
        fill: #85cdf2;
      }

      .cls-121 {
        fill: #89bcef;
      }

      .cls-122 {
        fill: #88bae7;
      }

      .cls-123 {
        fill: #9bced7;
      }

      .cls-124 {
        fill: #83beed;
      }

      .cls-125 {
        fill: #94c4e5;
      }

      .cls-126 {
        fill: #84d9ee;
      }

      .cls-127 {
        fill: #86eef4;
      }

      .cls-128 {
        fill: #7acce9;
      }

      .cls-129 {
        fill: #6fd0f1;
      }

      .cls-130 {
        fill: #c4ecfa;
      }

      .cls-131 {
        fill: #7cd1f4;
      }

      .cls-132 {
        fill: #45bbe9;
      }

      .cls-133 {
        fill: #2d8bd2;
      }

      .cls-134 {
        fill: #78d0de;
      }

      .cls-135 {
        fill: #8de0f0;
      }

      .cls-136 {
        fill: #68b9fa;
      }

      .cls-137 {
        fill: #c4e8fc;
      }

      .cls-138 {
        fill: #b7edfc;
      }

      .cls-139 {
        fill: #a4e0f7;
      }

      .cls-140 {
        fill: #b0eef6;
      }

      .cls-141 {
        fill: #dbd7fa;
      }

      .cls-142 {
        fill: #d7c3f0;
      }

      .cls-143 {
        fill: #d4d9f8;
      }

      .cls-144 {
        fill: #ecc7e9;
      }

      .cls-145 {
        fill: #7fe2fc;
      }

      .cls-146 {
        fill: #f9eef9;
      }

      .cls-147 {
        fill: #538fc4;
      }

      .cls-148 {
        fill: #e4f7fb;
      }

      .cls-149 {
        fill: #f5c6db;
      }

      .cls-150 {
        fill: #f3cee4;
      }

      .cls-151 {
        fill: #e6d5f4;
      }

      .cls-152 {
        fill: #d5d2f6;
      }

      .cls-153 {
        fill: #86b1e3;
      }

      .cls-154 {
        fill: #f8dcda;
      }

      .cls-155 {
        fill: #fadcd2;
      }

      .cls-156 {
        fill: #fdfbee;
      }

      .cls-157 {
        fill: #fcf5e8;
      }

      .cls-158 {
        fill: #fbeee0;
      }

      .cls-159 {
        fill: #63c7f8;
      }

      .cls-160 {
        fill: #7bc1f7;
      }

      .cls-161 {
        fill: #6bbeef;
      }

      .cls-162 {
        fill: #7fb3f6;
      }

      .cls-163 {
        fill: #87b9eb;
      }

      .cls-164 {
        fill: #84b4ef;
      }

      .cls-165 {
        fill: #bbedfb;
      }

      .cls-166 {
        fill: #b7e3fd;
      }

      .cls-167 {
        fill: #aed9fa;
      }

      .cls-168 {
        fill: #5eb9f5;
      }

      .cls-169 {
        fill: #65b2ed;
      }

      .cls-170 {
        fill: #7ac0ea;
      }

      .cls-171 {
        fill: #b4eff9;
      }

      .cls-172 {
        fill: #8dcffb;
      }

      .cls-173 {
        fill: #6fe0fc;
      }

      .cls-174 {
        fill: #75dcfc;
      }

      .cls-175 {
        fill: #56d3f9;
      }

      .cls-176 {
        fill: #72d3fa;
      }

      .cls-177 {
        fill: #6ce4fc;
      }

      .cls-178 {
        fill: #73e9fb;
      }

      .cls-179 {
        fill: #82d4fb;
      }

      .cls-180 {
        fill: #a5edfc;
      }

      .cls-181 {
        fill: #60cbfa;
      }

      .cls-182 {
        fill: #7ddafc;
      }

      .cls-183 {
        fill: #4e98e8;
      }

      .cls-184 {
        fill: #61b4fc;
      }

      .cls-185 {
        fill: #4b99df;
      }

      .cls-186 {
        fill: #4a97f1;
      }

      .cls-187 {
        fill: #67d0fa;
      }

      .cls-188 {
        fill: #449feb;
      }

      .cls-189 {
        fill: #e3c5f0;
      }

      .cls-190 {
        fill: #e4d1ed;
      }

      .cls-191 {
        fill: #fdf6f4;
      }

      .cls-192 {
        fill: #f0e0e1;
      }

      .cls-193 {
        fill: #4498f5;
      }

      .cls-194 {
        fill: #79bde6;
      }

      .cls-195 {
        fill: #f3fcfc;
      }

      .cls-196 {
        fill: #e3fafd;
      }

      .cls-197 {
        fill: #e2f8fb;
      }

      .cls-198 {
        fill: #cee7f7;
      }

      .cls-199 {
        fill: #69b2f8;
      }

      .cls-200 {
        fill: #72afed;
      }

      .cls-201 {
        fill: #fbe8e2;
      }

      .cls-202 {
        fill: #55c1fb;
      }

      .cls-203 {
        fill: #67d6fd;
      }

      .cls-204 {
        fill: #6cc1f9;
      }

      .cls-205 {
        fill: #51d0fc;
      }

      .cls-206 {
        fill: #50c9fb;
      }

      .cls-207 {
        fill: #8ab9e9;
      }

      .cls-208 {
        fill: #b1d5f1;
      }

      .cls-209 {
        fill: #b2d5fc;
      }

      .cls-210 {
        fill: #c4f5f8;
      }

      .cls-211 {
        fill: #c6edfa;
      }

      .cls-212 {
        fill: #c4e4f5;
      }

      .cls-213 {
        fill: #63c6f8;
      }

      .cls-214 {
        fill: #69b5e9;
      }

      .cls-215 {
        fill: #7bc9fc;
      }

      .cls-216 {
        fill: #6dd1f9;
      }

      .cls-217 {
        fill: #56c2f9;
      }

      .cls-218 {
        fill: #4abdf9;
      }

      .cls-219 {
        fill: #63e0fc;
      }

      .cls-220 {
        fill: #359ef7;
      }

      .cls-221 {
        fill: #3f96fc;
      }

      .cls-222 {
        fill: #5bb3eb;
      }

      .cls-223 {
        fill: #4db0ec;
      }

      .cls-224 {
        fill: #5cdefd;
      }

      .cls-225 {
        fill: #6ae0fc;
      }

      .cls-226 {
        fill: #5dc1f6;
      }

      .cls-227 {
        fill: #3baefa;
      }
    </style>
  </defs>
  <g id="Слой_2" data-name="Слой 2">
    <g id="Слой_2-2" data-name="Слой 2">
      <g>
        <path d="M101.24,88.44H57q-10.8,0-16.45-5.73T34.91,66.33V22.11q0-10.53,5.79-16.32T57,0h44.22V22.11H64.69q-4.68,0-6.17,1.49c-1,1-1.5,3.11-1.5,6.31L56.89,62c0,2.16.82,3.51,2.47,4a28.56,28.56,0,0,0,5.33.26H79.13V33.16h22.11Z"/>
        <path d="M197.48,88.44H174.29L152.23,29.61,130.17,88.44H106.83L140,0h24.32Zm-34.47,0H141.29l10.93-29.79Z"/>
        <path d="M269.27,88.44H258.21q-10.65,0-16.38-5.73t-5.72-16.38V29.91q0-5.85-2.73-7.15c-1-.43-3.73-.65-8.33-.65V88.44H202.94V22.11H191.89V0h44.22q10.53,0,16.32,5.79t5.78,16.32V62c0,2.16.83,3.51,2.48,4a28.48,28.48,0,0,0,5.33.26h3.25Z"/>
      </g>
      <g>
        <path d="M23.13,118.11c-1.37.22-2.62.46-3.76.71a23.31,23.31,0,0,1-.45-3.48,14.26,14.26,0,0,1-5.13,3,17.94,17.94,0,0,1-5.87,1A7,7,0,0,1,2.16,117,9.31,9.31,0,0,1,0,110.85a14.31,14.31,0,0,1,3.76-9.37,11.18,11.18,0,0,1,8.94-4.11,9.87,9.87,0,0,1,3,.48,6.55,6.55,0,0,1,2.64,1.45,1.29,1.29,0,0,1,.48.91,5.56,5.56,0,0,1-.39,1.5,5.34,5.34,0,0,0-.4,1.75,6.34,6.34,0,0,0-2.13.55,6.52,6.52,0,0,1-2.13.54,6.91,6.91,0,0,1-.1-1.19,6.66,6.66,0,0,1,.27-1.9h-.38a9.63,9.63,0,0,0-4.67,1.19,10.66,10.66,0,0,0-3.73,3.22,9.55,9.55,0,0,0-2,5.31A4.76,4.76,0,0,0,4.88,115a6,6,0,0,0,4,1.37,9.34,9.34,0,0,0,7.49-3.63h-2a39.54,39.54,0,0,1-4.59-.2l.5-2.44,6.33-.48a46,46,0,0,0,6.22-1,18.14,18.14,0,0,0-.43,4A24.26,24.26,0,0,0,23.13,118.11Z"/>
        <path d="M43.88,114.94q-8.4,4.36-12.52,4.37-5.22,0-5.3-7.57l-.31.05-.56-3,1-.2c0-.5.18-1.85.46-4.07l.15-1.24a30,30,0,0,0-.61-3.38,150.94,150.94,0,0,0,15.66-3.6A10.05,10.05,0,0,1,42,98.4a9.91,9.91,0,0,0,.23,2.19,65.49,65.49,0,0,1-11.83,2.24c-.44,2.2-.74,3.86-.89,5q1.88-.49,10.28-3a9.93,9.93,0,0,1,.17,2,9.18,9.18,0,0,0,.19,2.06A57.71,57.71,0,0,1,29,111.31a13.57,13.57,0,0,0-.1,1.6c0,2,.62,3,1.85,3q2.09,0,11.33-4.62a8.75,8.75,0,0,0,.9,1.84A9.48,9.48,0,0,1,43.88,114.94Z"/>
        <path d="M66.87,118.24,63,118.9a91.86,91.86,0,0,1-10.72-14.14q-.18,5.07-.18,7.41a67.33,67.33,0,0,0,.33,7,11.53,11.53,0,0,0-2,.25,12.55,12.55,0,0,1-2,.24c.18-2.59.28-5.43.28-8.51q0-3.56-.18-8.56l-1,0c-.05-.5-.21-2.09-.48-4.74l5.21-.61a162.5,162.5,0,0,0,10.84,16.35c0-1.15,0-2.35,0-3.61q0-3.42-.28-11.75a9.53,9.53,0,0,0,2-.31,10.06,10.06,0,0,1,2-.3c0,1.52-.06,3.81-.17,6.85s-.16,5.34-.16,6.86A63.91,63.91,0,0,0,66.87,118.24Z"/>
        <path d="M88.73,110.9q0,3.38-5.43,5.92-3.92,1.83-10.56,1.83h-.89q.18-1.35.66-4a21,21,0,0,0,3,.23,16.61,16.61,0,0,0,4.49-.61c3-.85,4.47-1.86,4.47-3,0-.71-.64-1.45-1.93-2.21q-2.4-1.42-10.43-1.85c-.34-.71-.84-1.79-1.5-3.23A157.76,157.76,0,0,0,84.82,96.2,8.67,8.67,0,0,1,85.53,98a9.27,9.27,0,0,0,.72,1.81,58.37,58.37,0,0,1-7.55,4.29c4,.53,6.72,1.59,8.28,3.2A5.23,5.23,0,0,1,88.73,110.9Z"/>
        <path d="M109.84,117.76a14.76,14.76,0,0,0-2.21.23,15.87,15.87,0,0,1-2.21.22c.08-1.16.18-2.92.31-5.25q-2.45.48-9.52,1.22c.06,1.32.16,2.51.3,3.58a11.12,11.12,0,0,0-1.93.23,12,12,0,0,1-1.93.22q.25-3.75.25-8.25,0-3.75-.25-11.25a9,9,0,0,0,1.93-.29,9.75,9.75,0,0,1,1.93-.29q0,2.13-.15,6.36t-.15,6.36q3.38-.55,9.52-2l-.31-10.13a12,12,0,0,0,2.21-.29,12.92,12.92,0,0,1,2.21-.29q0,2.19-.18,6.55c-.12,2.91-.18,5.1-.18,6.55A53.72,53.72,0,0,0,109.84,117.76Z"/>
        <path d="M118.07,117.88a13.23,13.23,0,0,0-1.93.22,13.23,13.23,0,0,1-1.93.22c.19-2.49.28-5.24.28-8.23q0-3.74-.28-11.25a9.75,9.75,0,0,0,1.93-.29,9,9,0,0,1,1.93-.29q0,2.17-.15,6.53t-.15,6.54A64.48,64.48,0,0,0,118.07,117.88Z"/>
        <path d="M142.1,118.24l-3.91.66a92.5,92.5,0,0,1-10.72-14.14q-.18,5.07-.18,7.41a67.33,67.33,0,0,0,.33,7,11.63,11.63,0,0,0-2,.25,12.55,12.55,0,0,1-2,.24c.18-2.59.28-5.43.28-8.51q0-3.56-.18-8.56l-1,0c0-.5-.21-2.09-.48-4.74,2-.22,3.7-.43,5.21-.61a162.5,162.5,0,0,0,10.84,16.35c0-1.15.05-2.35.05-3.61q0-3.42-.28-11.75a9.53,9.53,0,0,0,2-.31,10.06,10.06,0,0,1,2-.3c0,1.52-.06,3.81-.17,6.85s-.16,5.34-.16,6.86A63.91,63.91,0,0,0,142.1,118.24Z"/>
        <path d="M176.11,118.44a13.28,13.28,0,0,0-2.07.24,13.28,13.28,0,0,1-2.07.24c-.31-1.06-.66-2.18-1.07-3.35q-1.83.33-8.73,1c-.14.41-.33,1-.59,1.83a15.16,15.16,0,0,0-2.23.24,15.16,15.16,0,0,1-2.23.24q5.53-11.62,8-18.4l-1.19-3a11.11,11.11,0,0,0,2.05-.29,10.13,10.13,0,0,1,2-.29q1.59,4.7,4.92,14a16.86,16.86,0,0,0,1.86-.43,8.26,8.26,0,0,1,.19,2,8,8,0,0,0,.21,2l-.78.23A32.71,32.71,0,0,0,176.11,118.44Zm-6.5-6.63q-.5-1.32-2.71-7c-.81,1.81-2,4.56-3.49,8.23C165.31,112.78,167.37,112.36,169.61,111.81Z"/>
        <path d="M196.15,116.23l-2.65,2.57-8.47-5c-.31.17-.75.43-1.32.77q.09,2.1.3,3.72a11.45,11.45,0,0,0-1.94.24,10.79,10.79,0,0,1-1.95.25q.25-3.8.26-8.36,0-3.18-.13-7.61l-.66.12-1.65-3.25a48,48,0,0,1,11.4-1.87,13.06,13.06,0,0,1,4.57.71c1.83.67,2.74,1.73,2.74,3.17q0,2.57-3.22,5.84A34.48,34.48,0,0,1,188,112Zm-7.27-14.65a30.88,30.88,0,0,0-4.92.51l-.25,9.4a51,51,0,0,0,5.15-3.58c2.39-1.92,3.58-3.42,3.58-4.52S191.25,101.58,188.88,101.58Z"/>
        <path d="M215.32,101.68a37.2,37.2,0,0,1-6.12,1.45l-.2,9.14c0,2.37.09,4.51.25,6.43a11.32,11.32,0,0,0-1.9.24,11.32,11.32,0,0,1-1.9.24q.23-3.92.22-8.56,0-3-.1-7-1.57.24-5.79.79c0-.07-.22-1.22-.61-3.45a153.8,153.8,0,0,0,15.77-3.63,9.62,9.62,0,0,1,.18,2.18A8.85,8.85,0,0,0,215.32,101.68Z"/>
        <path d="M222.49,117.88a13.23,13.23,0,0,0-1.93.22,13.23,13.23,0,0,1-1.93.22c.19-2.49.28-5.24.28-8.23q0-3.74-.28-11.25a9.75,9.75,0,0,0,1.93-.29,9,9,0,0,1,1.93-.29q0,2.17-.15,6.53c-.1,2.91-.16,5.09-.16,6.54A64.28,64.28,0,0,0,222.49,117.88Z"/>
        <path d="M241.46,100.69a62.64,62.64,0,0,1-11.65,2.24c0,1-.08,2.62-.13,4.72,1.37-.3,2.95-.73,4.72-1.29l4.65-1.48a8.35,8.35,0,0,1,.18,2,8.29,8.29,0,0,0,.18,2,48.9,48.9,0,0,1-9.8,2v1.85a59.33,59.33,0,0,0,.25,6,10.11,10.11,0,0,0-1.68.21,9.16,9.16,0,0,1-1.67.22q.23-3.55.23-7.75,0-3.3-.16-8l-.55.08c0-.15-.24-1.29-.61-3.43a139.94,139.94,0,0,0,15.66-3.6,10,10,0,0,1,.19,2.16A9.92,9.92,0,0,0,241.46,100.69Z"/>
        <path d="M262.24,118.44a13.28,13.28,0,0,0-2.07.24,13.28,13.28,0,0,1-2.07.24c-.31-1.06-.66-2.18-1.07-3.35q-1.83.33-8.73,1c-.12.41-.32,1-.59,1.83a15.16,15.16,0,0,0-2.23.24,15.16,15.16,0,0,1-2.23.24q5.53-11.62,8-18.4c-.27-.66-.67-1.64-1.19-3a10.92,10.92,0,0,0,2-.29,10.3,10.3,0,0,1,2.05-.29q1.6,4.7,4.93,14a17.33,17.33,0,0,0,1.85-.43,7.33,7.33,0,0,1,.2,2,6.94,6.94,0,0,0,.21,2l-.79.23C261.2,116.29,261.75,117.51,262.24,118.44Zm-6.5-6.63q-.5-1.32-2.71-7c-.79,1.81-2,4.56-3.49,8.23C251.44,112.78,253.5,112.36,255.74,111.81Z"/>
        <path d="M284.13,112q-2.13,4.69-8.58,6.52a16.76,16.76,0,0,1-4.65.71c-2.62,0-4.58-.78-5.86-2.36a9.38,9.38,0,0,1-2.16-6.17,14.19,14.19,0,0,1,3.73-9.32,11.15,11.15,0,0,1,8.86-4.11,10.92,10.92,0,0,1,3.63.71c1.7.61,2.54,1.34,2.54,2.19a5.42,5.42,0,0,1-.37,1.44,5.11,5.11,0,0,0-.34,1.75,6.71,6.71,0,0,0-2.14.55,6.49,6.49,0,0,1-2.15.55,7.11,7.11,0,0,1-.1-1.2,5.91,5.91,0,0,1,.3-1.9h-.4a9.71,9.71,0,0,0-4.67,1.19,10.58,10.58,0,0,0-3.74,3.23,9.67,9.67,0,0,0-2,5.33,4.65,4.65,0,0,0,1.75,3.78,6,6,0,0,0,4,1.37,9.44,9.44,0,0,0,4.91-1.32,10.22,10.22,0,0,0,3.62-3.68Z"/>
        <path d="M301.63,101.68a37.69,37.69,0,0,1-6.12,1.45l-.2,9.14q0,3.56.25,6.43a11.21,11.21,0,0,0-1.9.24,11.3,11.3,0,0,1-1.91.24c.16-2.61.23-5.46.23-8.56q0-3-.1-7-1.58.24-5.79.79c0-.07-.22-1.22-.61-3.45a153.8,153.8,0,0,0,15.77-3.63,9.62,9.62,0,0,1,.18,2.18A8.85,8.85,0,0,0,301.63,101.68Z"/>
        <path d="M117.76,149.44l-3.91.66A92.5,92.5,0,0,1,103.13,136c-.12,3.38-.17,5.85-.17,7.41a64.7,64.7,0,0,0,.33,7,11.61,11.61,0,0,0-2,.25,12.43,12.43,0,0,1-2,.24c.18-2.59.28-5.43.28-8.51q0-3.56-.18-8.56l-1,.06c0-.51-.21-2.1-.48-4.75,2-.22,3.7-.43,5.21-.61A162.5,162.5,0,0,0,114,144.87c0-1.15,0-2.35,0-3.61q0-3.42-.28-11.75a9.53,9.53,0,0,0,2-.31,10.06,10.06,0,0,1,2-.3c0,1.52-.06,3.81-.17,6.85s-.16,5.34-.16,6.86A63.91,63.91,0,0,0,117.76,149.44Z"/>
        <path d="M131.88,150.58a10,10,0,0,1-7.29-2.89,9.73,9.73,0,0,1-2.94-7.23,11.3,11.3,0,0,1,3.52-8.34,11.5,11.5,0,0,1,8.39-3.48,10,10,0,0,1,7.27,2.9,9.64,9.64,0,0,1,3,7.2,11.32,11.32,0,0,1-3.52,8.35A11.47,11.47,0,0,1,131.88,150.58Zm9.27-11.64a6,6,0,0,0-1.75-4.5,6.25,6.25,0,0,0-4.55-1.71A10.57,10.57,0,0,0,128,135a7.81,7.81,0,0,0-3.05,6.36,5.81,5.81,0,0,0,1.73,4.44,6.38,6.38,0,0,0,4.55,1.62,10.84,10.84,0,0,0,6.83-2.21A7.56,7.56,0,0,0,141.15,138.94Z"/>
        <path d="M162.23,132.88a37.69,37.69,0,0,1-6.12,1.45l-.2,9.14q0,3.56.25,6.43a11.21,11.21,0,0,0-1.9.24,11.3,11.3,0,0,1-1.91.24q.22-3.91.23-8.56c0-2,0-4.36-.1-7q-1.57.24-5.79.79c0-.07-.22-1.22-.61-3.45a154.4,154.4,0,0,0,15.77-3.63,9.62,9.62,0,0,1,.18,2.18A8.38,8.38,0,0,0,162.23,132.88Z"/>
        <path d="M183.11,146.14q-8.42,4.37-12.52,4.37-5.24,0-5.31-7.57l-.3.05-.56-3,1-.2c0-.5.19-1.85.46-4.07l.15-1.24a28,28,0,0,0-.61-3.38,151.06,151.06,0,0,0,15.67-3.6,11.64,11.64,0,0,1,.18,2.12,8.82,8.82,0,0,0,.23,2.19A65.83,65.83,0,0,1,169.62,134c-.44,2.2-.73,3.86-.89,5q1.89-.5,10.29-3a10.11,10.11,0,0,1,.16,2,9.18,9.18,0,0,0,.19,2.06,57.58,57.58,0,0,1-11.14,2.49,13.74,13.74,0,0,0-.11,1.6c0,2,.62,3,1.86,3q2.09,0,11.32-4.62a9.45,9.45,0,0,0,.91,1.84A10.87,10.87,0,0,1,183.11,146.14Z"/>
        <path d="M204.06,142.1c0,2.25-1.81,4.23-5.43,5.92q-3.91,1.83-10.57,1.83h-.89q.18-1.35.66-4a21.24,21.24,0,0,0,3,.23,16.72,16.72,0,0,0,4.49-.61c3-.85,4.47-1.86,4.47-3,0-.71-.64-1.45-1.93-2.21q-2.41-1.42-10.44-1.85L186,135.14a157.76,157.76,0,0,0,14.19-7.74,8.67,8.67,0,0,1,.71,1.82,8.77,8.77,0,0,0,.71,1.81,58.21,58.21,0,0,1-7.54,4.29c4,.53,6.72,1.59,8.28,3.2A5.23,5.23,0,0,1,204.06,142.1Z"/>
      </g>
      <g>
        <path class="cls-1" d="M155.07,18.74l.14.17c.1.22.21.43.31.65a6.58,6.58,0,0,0,.3,1.8c1.17,2.49,2.45,4.93,3.65,7.41.71,1.45,1.36,2.94,2,4.42l.84,1.56-.89.22-.24-.19-1.74-2.46-.67-1.09-2-4.39c-.51-1-1-2.06-1.55-3.09A5.16,5.16,0,0,0,155,23c-.49-1-1-2-1.51-2.94-.27-1.39-.86-1.89-2.16-1.91-.16,0-.32-.2-.49-.31a16.81,16.81,0,0,1,.72-2,.8.8,0,0,1,1.46.12c.35.72.64,1.47,1,2.14C154.3,18.35,154.74,18.51,155.07,18.74Z"/>
        <path class="cls-2" d="M131.57,39.81l.31-.22c.29.12.67.43.84.33,1.71-.88,3.4-1.81,5.07-2.77.26-.15.38-.55.56-.83l.22-.23h0l.26-.21a.47.47,0,0,0,.17,0l.45-.19h0l.67-.44h0l1.29-.46.24-.2h0l.21-.22h0l.22-.44h0l.42-.23.22,2.2-2.42,2.2-.44.21c-.39,0-.86-.14-1.17,0-1,.52-1.86,1.16-2.79,1.75l-1.32.66-1.54.44-.66-.77-.22.21.42.25,0,.17-1.68-.27Z"/>
        <path class="cls-3" d="M150.87,17.8c.17.11.33.31.49.31,1.3,0,1.89.52,2.16,1.91L152,18.7l-1.54,2.63-1.11,2.2c-.51,1-1,1.95-1.54,2.91a3.21,3.21,0,0,1-.65.62V25.68h-.3a4.32,4.32,0,0,1-.49,1.14,4.07,4.07,0,0,1-1,.68l.25-.63a7.69,7.69,0,0,0,2.18-4.68l.45-1.28a.28.28,0,0,1,0-.2l.2-.24h0l.23-.2.18-.25a1.16,1.16,0,0,0,0-.18l.18-.26.69-1.58.16-.17Z"/>
        <path class="cls-4" d="M143.59,58.94l-1.78-3.45c.52-.78.06-1.19-.54-1.61s-1.09-.9-1.63-1.36a3,3,0,0,1,3.1,2.17c.14.4.36.77.53,1.16l2.09,3.83,1.58,3.68c.36.68.78,1.33,1.07,2a16.14,16.14,0,0,1,.52,2c-.16-.11-.4-.19-.49-.35-.68-1.35-1.34-2.72-2-4.08Z"/>
        <path class="cls-5" d="M161.5,33.19c-.67-1.48-1.32-3-2-4.42-1.2-2.48-2.48-4.92-3.65-7.41a6.58,6.58,0,0,1-.3-1.8h.2l6.16,12.23,0,.76C161.74,32.77,161.62,33,161.5,33.19Z"/>
        <path class="cls-6" d="M166.28,52.12l-.44.47h0l-1,.44a.25.25,0,0,1-.12,0l-.86.41h0l-.46.43-.19,0-.45.43h0l-.45.42-.33.3.33.2-.06.23-.75,1.38L161,55.68l2-3.08,3.08-1.33Z"/>
        <path class="cls-7" d="M155.49,68a22.48,22.48,0,0,1-.62,2.7,15.81,15.81,0,0,1-1.15,2.14,4.25,4.25,0,0,1-.92.17,9,9,0,0,1-1.26-.16c-.36-.88-.73-1.77-1.1-2.65l.4.29,1,2.24h.47c.39-.6.76-1.22,1.16-1.81.66-1,1.34-1.94,2-2.91Z"/>
        <path class="cls-8" d="M150.87,17.8l-.92,0c.53-1,1.06-2.06,1.58-3.09l1.36,0a7.81,7.81,0,0,1,2.18,4c-.33-.23-.77-.39-1-.71-.41-.67-.7-1.42-1-2.14a.8.8,0,0,0-1.46-.12A16.81,16.81,0,0,0,150.87,17.8Z"/>
        <path class="cls-9" d="M161,55.68l.48,1.18,0,.08c-.28.24-.66.43-.83.74-.38.68-.65,1.42-1,2.13-.56.9-1.18,1.77-1.66,2.72-.66,1.28-1.21,2.61-1.81,3.92l-.46.44a8.74,8.74,0,0,1,.39-1.44c.65-1.44,1.35-2.85,2-4.28.5-1,1-2.07,1.51-3.09C160.09,57.27,160.56,56.48,161,55.68Z"/>
        <path class="cls-10" d="M167,36.07l2.79,1.24c.18.08.34.23.53.31a9.18,9.18,0,0,1,3.08,2.19c-.56-.22-1.12-.44-1.68-.64s-.84-.29-1.26-.43H170l-.65-.47-1.55-1.08-1.54-1.1Z"/>
        <path class="cls-11" d="M124.68,44.66c-.49-1.34.32-2.59,2-3.06l.7-.24L128,42a21.8,21.8,0,0,0-1.83,1.32c-.21.19-.23.6-.34.91v.21l0,.23-.22.44Z"/>
        <path class="cls-12" d="M155.73,66.89l.46-.44c.51-.88,1-1.77,1.55-2.64.33-.54.7-1,1.06-1.55l0,0a12.79,12.79,0,0,1-.5,2c-.4,1-1,1.87-1.37,2.84-.3.69-.68,1.07-1.46.9h0Z"/>
        <path class="cls-13" d="M125.58,45.1l.22-.44.43.25a3.78,3.78,0,0,0,.81.79c1.18.64,2.39,1.22,3.6,1.82.31.21.63.42.93.65.66.5,1.74.49,1.94,1.56a5.45,5.45,0,0,1-3.1-1.51c-.43-.31-.85-.65-1.3-.94C127.94,46.54,126.75,45.83,125.58,45.1Z"/>
        <path class="cls-14" d="M173.8,47.52a1.48,1.48,0,0,1-.86,1.66c-1.21.57-2.39,1.22-3.58,1.83a2,2,0,0,1,.27-.63c.47-.46,1-.88,1.49-1.31l.46-.42.63-.49Z"/>
        <path class="cls-15" d="M146,62.92c.67,1.36,1.33,2.73,2,4.08.09.16.33.24.49.35l.15.42a4.71,4.71,0,0,1-.84-.22,2.25,2.25,0,0,1-.49-.44l-2-4Z"/>
        <path class="cls-16" d="M133.51,49.73c-.2-1.07-1.28-1.06-1.94-1.56-.3-.23-.62-.44-.93-.65h.63l.48.19c1.41.75,2.84,1.48,4.24,2.27a10.58,10.58,0,0,1,1.3,1l-1.81-.43Z"/>
        <path class="cls-17" d="M159.66,59.81c.32-.71.59-1.45,1-2.13.17-.31.55-.5.83-.74a20.45,20.45,0,0,1-.7,2.58,20,20,0,0,1-1.36,2.59c-.07.13-.38.12-.58.17l0,0Z"/>
        <path class="cls-18" d="M135.48,50.59l1.81.43,2.17,1.5-.31.54c-1.22-.68-2.45-1.35-3.66-2.05C135.43,51,135.48,50.74,135.48,50.59Z"/>
        <path class="cls-19" d="M178.83,42.43a1.84,1.84,0,0,1,.25,3.36,2.09,2.09,0,0,1-1.8.61,4.19,4.19,0,0,0,.83-.53,3.41,3.41,0,0,0,.46-.79l.24-1.92Z"/>
        <path class="cls-20" d="M128,42l-.63-.63a23.64,23.64,0,0,1,2.44-1.28,7.27,7.27,0,0,1,1.76-.27l-.7.92L128.64,42Z"/>
        <path class="cls-21" d="M150.44,70.18l1.1,2.65h-.92l-.38-.06a8.59,8.59,0,0,0-.21-1.45c-.33-1.08-.73-2.14-1.11-3.21Z"/>
        <path class="cls-22" d="M125.58,45.1c1.17.73,2.36,1.44,3.53,2.18.45.29.87.63,1.3.94a11.15,11.15,0,0,1-1.72-.56,27.59,27.59,0,0,1-3.09-1.75,4.61,4.61,0,0,1-.92-1.25Z"/>
        <path class="cls-23" d="M148.92,68.12c.38,1.07.78,2.13,1.11,3.21a8.59,8.59,0,0,1,.21,1.45c-.11,0-.29,0-.31,0-.87-1.88-1.72-3.77-2.58-5.65a2.25,2.25,0,0,0,.49.44,4.71,4.71,0,0,0,.84.22Z"/>
        <path class="cls-24" d="M138.35,36.32c-.18.28-.3.68-.56.83-1.67,1-3.36,1.89-5.07,2.77-.17.1-.55-.21-.84-.33l1.16-.65,4.86-2.45.23-.19h0Z"/>
        <path class="cls-25" d="M171.58,48.65l-.46.42c-1.19.64-2.4,1.26-3.57,1.94a6.48,6.48,0,0,0-1,.93l-.23.18-.18-.85,2.41-1.54c.66-.33,1.31-.7,2-1A4.14,4.14,0,0,1,171.58,48.65Z"/>
        <path class="cls-26" d="M178.83,42.43l0,.73-3.28-1.61-.23-.85A4.87,4.87,0,0,1,178.83,42.43Z"/>
        <path class="cls-27" d="M146,62.92l-.66.23c-.54-1-1.11-2-1.6-3a3.72,3.72,0,0,1-.18-1.17Z"/>
        <path class="cls-28" d="M167,36.07h-.69l-3.73-2.21-.7-1.31,0-.76c.28.26.65.47.81.79.78,1.48,2.21,2.11,3.55,2.88A6,6,0,0,1,167,36.07Z"/>
        <path class="cls-29" d="M166.51,51.94a6.48,6.48,0,0,1,1-.93c1.17-.68,2.38-1.3,3.57-1.94-.5.43-1,.85-1.49,1.31a2,2,0,0,0-.27.63Z"/>
        <path class="cls-30" d="M147.8,22.18a7.69,7.69,0,0,1-2.18,4.68l0-.27A8.15,8.15,0,0,1,147.8,22.18Z"/>
        <path class="cls-31" d="M175.3,40.7c.08.28.15.57.23.85-.33-.13-.66-.25-1-.41l-3.2-1.54-.92-.86c.42.14.84.27,1.26.43s1.12.42,1.68.64Z"/>
        <path class="cls-32" d="M137.9,36.49,133,38.94a11.69,11.69,0,0,1,4.84-2.66l0,0A1.09,1.09,0,0,0,137.9,36.49Z"/>
        <path class="cls-33" d="M139.15,53.06l.31-.54.09,0,.09,0c.54.46,1.05.95,1.63,1.36s1.06.83.54,1.61c-.71-.53-1.45-1-2.12-1.59A3,3,0,0,1,139.15,53.06Z"/>
        <path class="cls-34" d="M150.62,72.84h.92a9,9,0,0,0,1.26.16,4.25,4.25,0,0,0,.92-.17c.34,1-.63.93-1.05,1.19C152,74.43,150.75,73.65,150.62,72.84Z"/>
        <path class="cls-35" d="M173.8,47.52l-1.59.64.24-.4L175.76,46l1.52-.47-2,1.34h0l-.88.41Z"/>
        <path class="cls-36" d="M175.3,46.88l2-1.34h.21l.89-.4.19-.05a3.41,3.41,0,0,1-.46.79,4.19,4.19,0,0,1-.83.53Z"/>
        <path class="cls-37" d="M163.2,53.9l.19,0,.46-.43h0l.86-.41a.25.25,0,0,0,.12,0,3.94,3.94,0,0,1-.6.95c-.63.55-1.33,1-2,1.51l.06-.23a2.29,2.29,0,0,0,0-.25l.43-.67h0Z"/>
        <path class="cls-38" d="M141.64,33.67c.59-1,1.18-2.08,1.76-3.12,0,.23,0,.45,0,.67l-1.29,2.67h0l-.25.2Z"/>
        <path class="cls-39" d="M143.39,31.22v-.67l.19-.19.47-.66.64-.9-1.3,3.09Z"/>
        <path class="cls-40" d="M144.7,28.8l-.64.9-.2-.44c.28-.59.56-1.19.85-1.78l.21.22a2.34,2.34,0,0,1,0,.26Z"/>
        <path class="cls-41" d="M141.64,33.67l.21.42,0,.24h0l-.21.22h0l-.24.2-1.29.46-.24-.24.63-.47.67-.16Z"/>
        <path class="cls-42" d="M148.92,19.83a1.16,1.16,0,0,1,0,.18h-.2v0a2,2,0,0,1,1.11-2l-.69,1.58Z"/>
        <path class="cls-43" d="M152.89,14.78l-1.36,0,.25-.4h.62Z"/>
        <path class="cls-44" d="M139,35.84a.47.47,0,0,1-.17,0l-.26.21h0l-.23,0,0-.29,1.13-.56a1.09,1.09,0,0,0,0,.18v.25h0Z"/>
        <path class="cls-45" d="M143.86,29.26l.2.44-.47.66Z"/>
        <path class="cls-46" d="M144.76,27.29l.62-.67-.21.88H145Z"/>
        <path class="cls-36" d="M174.44,47.28l.88-.41Z"/>
        <path class="cls-47" d="M155.72,19.57h-.2c-.1-.22-.21-.43-.31-.65C155.93,18.71,155.7,19.23,155.72,19.57Z"/>
        <path class="cls-48" d="M145.17,27.5l.21-.88.21,0,0,.27c-.09.21-.17.42-.25.63Z"/>
        <path class="cls-49" d="M148.26,20.7a.28.28,0,0,0,0,.2c-.06-.22-.13-.43-.19-.65l.41.21h0Z"/>
        <path class="cls-50" d="M148.47,20.46l-.41-.21.62-.25v0l0,.24Z"/>
        <path class="cls-51" d="M141.18,34.34l-.67.16Z"/>
        <path class="cls-52" d="M139.44,35.4a1.09,1.09,0,0,1,0-.18l.43-.25.24.24h0Z"/>
        <path class="cls-53" d="M152.4,14.33h0Z"/>
        <path class="cls-54" d="M165.84,52.59l.27.11-.08.07-.18-.19Z"/>
        <path class="cls-55" d="M144.76,27.29l.19.21,0,.2-.21-.22A.41.41,0,0,1,144.76,27.29Z"/>
        <path class="cls-32" d="M137.88,36.28l.25-.39a1.09,1.09,0,0,1,0,.18v.23h-.21Z"/>
        <path class="cls-56" d="M138.12,36.07a1.09,1.09,0,0,0,0-.18,1.18,1.18,0,0,1,.19-.11l0,.29Z"/>
        <path class="cls-57" d="M169.37,38.26l.65.47c-.09.61-.32.64-.88.38-1.21-.57-2.48-1-3.73-1.5q-.76-.11-1.53-.24c-.37-.06-.74-.15-1.11-.23l-.66-.62L161.45,35l.89-.22c1.5.81,3,1.64,4.51,2.42C167.66,37.58,168.53,37.9,169.37,38.26Z"/>
        <path class="cls-58" d="M158.8,31.23c.22.37.45.73.67,1.09,0,.41.05.82.05,1.24s0,.94-.06,1.41H157.7c.15-.72.32-1.44.44-2.16a5.65,5.65,0,0,0,0-.92l.44-.66Z"/>
        <path class="cls-59" d="M161.45,35l.66,1.55c-.74-.48-1.21.18-1.77.43l-.44.23H159L159.9,35l1.31-.2Z"/>
        <path class="cls-60" d="M158.8,31.23h-.22l-.88-.45c-.14-.36-.29-.73-.44-1.1l-.88-1.09v-.88l.44-.88Z"/>
        <path class="cls-61" d="M169.37,38.26c-.84-.36-1.71-.68-2.52-1.09-1.52-.78-3-1.61-4.51-2.42l-.84-1.56c.12-.21.24-.42.35-.63l.7,1.31c1.42,1.64,3.41,2.38,5.27,3.31Z"/>
        <path class="cls-62" d="M152,18.7,153.52,20c.5,1,1,1.95,1.51,2.94a5.16,5.16,0,0,1,.24.79h-.43c-.37-.51-.74-1-1.1-1.54-.15-.44-.26-.89-.45-1.32a6.3,6.3,0,0,0-.54-.84l-.55.84Z"/>
        <path class="cls-63" d="M154.84,23.75h.43c.52,1,1,2.06,1.55,3.09l-.44.88-1.32-2.64Z"/>
        <path class="cls-64" d="M161.21,34.78l-1.31.2h-.44c0-.47.06-.94.06-1.41s0-.83-.05-1.24Z"/>
        <path class="cls-65" d="M134.6,40.7l1.32-.66c.62,0,1.37.3,1.83.05a11.75,11.75,0,0,0,2.13-1.82l.44-.21,3.74,2.86,1.1,1.1v.44a11.63,11.63,0,0,1-2.15.36c-1.12,0-2.23-.23-3.35-.36L136.58,42c-.55-.28-1.11-.53-1.64-.84C134.79,41.09,134.71,40.86,134.6,40.7Z"/>
        <path class="cls-66" d="M128.64,42l2.23-1.24,1.68.27,0-.17-.42-.25.22-.21.66.77-.61.76a3.07,3.07,0,0,0,.8.33c1.11.1,2.22.15,3.33.23.28.14.54.4.83.42.82,0,1.65,0,2.47,0,1.12.07,2.25.13,3.37.23a10.52,10.52,0,0,1,1.25.21c-2.32,0-4.64,0-7,0-.32,0-.64.27-1,.41h-1.08a3.11,3.11,0,0,0-1-.41c-1.67,0-3.35,0-5,0a5.71,5.71,0,0,1-1.21-.27l.06-.3.88-.12Z"/>
        <path class="cls-67" d="M144.06,40.92l-3.74-2.86,2.42-2.2.88.22,2.2,2.42c-1.12-.36-2.31.28-2,1.76Z"/>
        <path class="cls-68" d="M143.62,36.08l-.88-.22-.22-2.2a1.8,1.8,0,0,0,0-.22c.36-.19.88-.29,1-.59.47-.87.88-.61,1.37-.07a3.91,3.91,0,0,0,.88,3.52l0,.84a7.5,7.5,0,0,1-1.07-.37A12.32,12.32,0,0,1,143.62,36.08Z"/>
        <path class="cls-69" d="M136.58,42.46c-1.11-.08-2.22-.13-3.33-.23a3.07,3.07,0,0,1-.8-.33l.61-.76,1.54-.44c.11.16.19.39.34.48.53.31,1.09.56,1.64.84Z"/>
        <path class="cls-70" d="M139.88,38.27a11.75,11.75,0,0,1-2.13,1.82c-.46.25-1.21,0-1.83-.05.93-.59,1.83-1.23,2.79-1.75C139,38.13,139.49,38.27,139.88,38.27Z"/>
        <path class="cls-71" d="M142.54,33.44l0,.22-.42.23,1.29-2.67c0,.23,0,.45,0,.67Z"/>
        <path class="cls-41" d="M139.44,35.4l.68-.19-.67.44Z"/>
        <path class="cls-71" d="M141.88,34.33l0-.24.25-.2C142,34,142,34.18,141.88,34.33Z"/>
        <path class="cls-41" d="M139,35.84l.45-.19Z"/>
        <path class="cls-41" d="M138.12,36.07h.22l.23,0-.22.23-.23,0Z"/>
        <path class="cls-71" d="M141.41,34.75l.24-.2Z"/>
        <path class="cls-71" d="M141.66,34.55l.21-.22Z"/>
        <path class="cls-41" d="M138.57,36.09l.26-.21Z"/>
        <path class="cls-72" d="M147.14,27.06a3.21,3.21,0,0,0,.65-.62c.54-1,1-1.94,1.54-2.91.08.44.16.88.23,1.32a2.9,2.9,0,0,0,.6.65,7.78,7.78,0,0,0,1.16.46l-.66,2.63c0-.76.05-1.53-.84-2a6.87,6.87,0,0,0-2,4l-.66,1.32-.66-.22a4.25,4.25,0,0,1,.49-2.81c.17-.23.12-.62.17-.94Z"/>
        <path class="cls-73" d="M151.32,26a7.78,7.78,0,0,1-1.16-.46,2.9,2.9,0,0,1-.6-.65c1.19-.66,1.49-1.86.88-3.52L152,18.7c.07.73.14,1.46.22,2.19L152,22.66q.21,3.63.43,7.26c-.15-.77-.25-1.54-.45-2.29A16,16,0,0,0,151.32,26Z"/>
        <path class="cls-74" d="M147.14,27.06v.87c-.45.81-.95,1.59-1.34,2.43s-.58,1.61-.86,2.42c-.49-.54-.9-.8-1.37.07-.15.3-.67.4-1,.59l.86-1.55,1.3-3.09c.09-.28.17-.56.26-.84l.21-.46h.2a4.07,4.07,0,0,0,1-.68,4.32,4.32,0,0,0,.49-1.14h.3Z"/>
        <path class="cls-75" d="M150.44,21.33c.61,1.66.31,2.86-.88,3.52-.07-.44-.15-.88-.23-1.32Z"/>
        <path class="cls-76" d="M148.7,20.26l0-.24h.2Z"/>
        <path class="cls-76" d="M148.92,19.83l.18-.26Z"/>
        <path class="cls-50" d="M148.26,20.7l.2-.24Z"/>
        <path class="cls-77" d="M139.64,52.52l-.09,0-.09,0L137.29,51a10.58,10.58,0,0,0-1.3-1c-1.4-.79-2.83-1.52-4.24-2.27l-1.5-1.29c-.74-.6-2-.56-2.25-1.76l1.12-.21,2,1.08c2.63,1.47,5.25,2.95,7.9,4.4,1.29.71,2.63,1.33,3.95,2,.3.43.6.87.89,1.31l1.34,3.08V57c-.29,0-.69,0-.84-.14a6.07,6.07,0,0,1-.68-1.23l-.39.27c-.17-.39-.39-.76-.53-1.16A3,3,0,0,0,139.64,52.52Z"/>
        <path class="cls-78" d="M148.92,68.12l-.24-.35-.15-.42a16.14,16.14,0,0,0-.52-2c-.29-.7-.71-1.35-1.07-2,1.1.13,1.23,1.17,1.73,1.86.16.22.35.42.53.63a2.35,2.35,0,0,0-.27-1.24l-1.13-2.78,2.86,5.27.88,2.64-.7.73-.4-.29Z"/>
        <path class="cls-77" d="M147.8,61.83l1.13,2.78a2.35,2.35,0,0,1,.27,1.24c-.18-.21-.37-.41-.53-.63-.5-.69-.63-1.73-1.73-1.86l-1.58-3.68-.12-1.93.21,0,.81,1.24Z"/>
        <path class="cls-78" d="M146.26,59l-.81-1.24-.21,0,.12,1.93-2.09-3.83.39-.27a6.07,6.07,0,0,0,.68,1.23c.15.16.55.1.84.14Z"/>
        <path class="cls-79" d="M161,55.68c-.45.8-.92,1.59-1.35,2.4-.52,1-1,2.06-1.51,3.09l-.45-.23c0-.28-.19-.61-.09-.83A33.87,33.87,0,0,1,159.18,57c.86-1.49,1.8-2.93,2.7-4.4l1.14,0Z"/>
        <path class="cls-80" d="M163,52.6l-1.14,0h0l2.2-1.54a9.61,9.61,0,0,0,1.41-.44c.86-.4,1.69-.87,2.54-1.32l.48.46-2.41,1.54Z"/>
        <path class="cls-81" d="M164.71,53l-.86.41Z"/>
        <path class="cls-82" d="M162.75,54.33l-.43.67,0-.25Z"/>
        <path class="cls-82" d="M163.85,53.45l-.46.43Z"/>
        <path class="cls-82" d="M163.2,53.9l-.45.43Z"/>
        <path class="cls-83" d="M162.3,54.75l0,.25a2.29,2.29,0,0,1,0,.25l-.33-.2Z"/>
        <path class="cls-84" d="M157.7,60.94l.45.23c-.68,1.43-1.38,2.84-2,4.28a8.74,8.74,0,0,0-.39,1.44l-.22,1.1c-.68,1-1.36,1.93-2,2.91-.4.59-.77,1.21-1.16,1.81h-.47l-1-2.24.7-.73c.28.52.68.52.9.05.84-1.83,1.61-3.69,2.41-5.54l1.33-2c.24-.2.49-.39.72-.59Z"/>
        <path class="cls-85" d="M159.66,59.81l-.86,2.45c-.36.51-.73,1-1.06,1.55-.53.87-1,1.76-1.55,2.64.6-1.31,1.15-2.64,1.81-3.92C158.48,61.58,159.1,60.71,159.66,59.81Z"/>
        <path class="cls-86" d="M165.41,37.61c1.25.49,2.52.93,3.73,1.5.56.26.79.23.88-.38h.41l.92.86-1.19.22-1,.16-.62-.42Z"/>
        <path class="cls-87" d="M167.82,37.18c-1.86-.93-3.85-1.67-5.27-3.31l3.73,2.21Z"/>
        <path class="cls-88" d="M128.64,42l.59.66-.88.12-.06.3a5.71,5.71,0,0,0,1.21.27c1.67,0,3.35,0,5,0a3.11,3.11,0,0,1,1,.41c-1.13,0-2.26,0-3.39,0-2.09.11-4.18.28-6.27.43.11-.31.13-.72.34-.91A21.8,21.8,0,0,1,128,42Z"/>
        <path class="cls-89" d="M125.83,44.22c2.09-.15,4.18-.32,6.27-.43,1.13-.06,2.26,0,3.39,0H137l-3.09.22c-.81.06-1.61.14-2.42.22l-2.4.23-1.12.21a3.12,3.12,0,0,1-.74.06c-.48-.06-1-.19-1.43-.29Z"/>
        <path class="cls-90" d="M125.83,44.43c.47.1,1,.23,1.43.29a3.12,3.12,0,0,0,.74-.06c.27,1.2,1.51,1.16,2.25,1.76l1.5,1.29-.48-.19-5-2.61-.43-.25Z"/>
        <path class="cls-91" d="M126.23,44.91l5,2.61h-.63c-1.21-.6-2.42-1.18-3.6-1.82A3.78,3.78,0,0,1,126.23,44.91Z"/>
        <path class="cls-92" d="M168.51,49.73l-.48-.46.23-.43L172,47.29l.46.47-.24.4-.63.49a4.14,4.14,0,0,0-1.07.1C169.82,49,169.17,49.4,168.51,49.73Z"/>
        <path class="cls-93" d="M169.13,40l1-.16,1.19-.22,3.2,1.54c.32.16.65.28,1,.41l3.28,1.61-.24,1.92-.19.05-.67,0-.89.2-.22-.63-.43-.42c-.15-.37-.3-.75-.44-1.12l-1.09-.44-.41-.25a3.52,3.52,0,0,0-.79-.67C172,41.15,170.57,40.57,169.13,40Z"/>
        <path class="cls-41" d="M137.91,36.31h.22l-.23.19A1.09,1.09,0,0,1,137.91,36.31Z"/>
        <path class="cls-94" d="M172.45,47.76l-.46-.47,1.32-.88,2-.88.47.48Z"/>
        <path class="cls-95" d="M175.76,46l-.47-.48c0-.07,0-.13,0-.2l1.29-.66.22.63.89-.2c-.07.14-.14.29-.22.43h-.21Z"/>
        <path class="cls-31" d="M177.49,45.53c.08-.14.15-.29.22-.43l.67,0Z"/>
        <path class="cls-48" d="M145.17,27.5,145,28a2.34,2.34,0,0,0,0-.26l0-.2Z"/>
        <path class="cls-96" d="M160.34,37c.56-.25,1-.91,1.77-.43l.66.62-.67.1.66.38c.18.38.36.76.55,1.13.33.62.91,1.22.94,1.84a17.27,17.27,0,0,1-.39,3.18h-3.74l2.38-.8a6.63,6.63,0,0,1-.67-.27,4.52,4.52,0,0,1-.58-.39c.2-.16.38-.42.61-.47.63-.14,1.28-.19,1.92-.28-.46-2.89-.85-3.34-2.56-3.07C161.49,37.66,160.72,37.42,160.34,37Z"/>
        <path class="cls-97" d="M162.76,37.62l-.66-.38.67-.1c.37.08.74.17,1.11.23s1,.17,1.53.24l3.1,2-.93.14-.86.11-2.2-1.09Z"/>
        <path class="cls-98" d="M159.46,35h.44c-.29.73-.58,1.47-.88,2.21l-.22.43c-1.2-.1-1.79.75-2.42,1.54l-.88.44c.53-1,1.07-2,1.59-3,.23-.45.41-.92.61-1.38V35Z"/>
        <path class="cls-99" d="M157.7,30.79l.88.45-.44.66-1.76,2.2c-.17-.17-.49-.35-.49-.51a6.07,6.07,0,0,1,.27-1.25Z"/>
        <path class="cls-100" d="M156.38,34.1l1.76-2.2a5.65,5.65,0,0,1,0,.92c-.12.72-.29,1.44-.44,2.16v.22a3,3,0,0,0-.79.3,10.56,10.56,0,0,0-1,.8Z"/>
        <path class="cls-101" d="M160.34,37c.38.47,1.15.71.88,1.55l.79,1.31c-.25.31-.58,1-1.15,1.34-1.05.6-.87,2.39-2.43,2.43a1.52,1.52,0,0,0-.07.4h-2.2c0-.68.42-.61.87-.65a2.18,2.18,0,0,0,.63-.28l-.35-.57c-.15-.24-.46-.51-.41-.69s.42-.62.62-.6c.87.06,1.15-.52,1.38-1.14.35-.95.67-1.91,1-2.86Z"/>
        <path class="cls-102" d="M159.9,37.18c-.33,1-.65,1.91-1,2.86-.23.62-.51,1.2-1.38,1.14-.2,0-.55.35-.62.6s.26.45.41.69l.35.57a2.18,2.18,0,0,1-.63.28c-.45,0-.92,0-.87.65l0,.08-2.42,0-.9-.47v-.44c.86-.56,1.74-1.1,2.57-1.7.41-.29,1.18-.33.95-1.16a4.89,4.89,0,0,0,2.42-2.64l.22-.43Z"/>
        <path class="cls-103" d="M155.06,25.08l1.32,2.64v.88l-1.54,1.32-1.76.66.44-4Z"/>
        <path class="cls-104" d="M154.84,29.92l1.54-1.32.88,1.09c-.92-.05-1.68,0-1.39,1.31.1.47-.23,1-.37,1.56l-1.1,1.54-.88-.88A3.67,3.67,0,0,0,154.84,29.92Z"/>
        <path class="cls-105" d="M155.5,32.56c.14-.53.47-1.09.37-1.56-.29-1.34.47-1.36,1.39-1.31.15.37.3.74.44,1.1l-1.54,1.55Z"/>
        <path class="cls-106" d="M155.06,25.08l-1.54,1.54-.88-3.31c-.1-.83.36-1.1,1.1-1.1.36.52.73,1,1.1,1.54C154.91,24.19,155,24.63,155.06,25.08Z"/>
        <path class="cls-107" d="M153.74,22.21c-.74,0-1.2.27-1.1,1.1l-.65-.65.21-1.77c.18-.28.36-.56.55-.84a6.3,6.3,0,0,1,.54.84C153.48,21.32,153.59,21.77,153.74,22.21Z"/>
        <path class="cls-108" d="M144.06,40.92l-.22-.66c.43-.67.94-.95,1.69-.45.59.38,1.7.13,1.61,1.33L146,42h-.88Z"/>
        <path class="cls-109" d="M144.5,43.34a10.52,10.52,0,0,0-1.25-.21c-1.12-.1-2.25-.16-3.37-.23l-.22-.44c1.12.13,2.23.33,3.35.36a11.63,11.63,0,0,0,2.15-.36v.88Z"/>
        <path class="cls-110" d="M145.16,43.34V42H146l2.2,1.32h-3.08Z"/>
        <path class="cls-111" d="M139.66,42.46l.22.44c-.82,0-1.65,0-2.47,0-.29,0-.55-.28-.83-.42V42Z"/>
        <path class="cls-88" d="M145.16,43.34H148l-.89.64H145.6a6.49,6.49,0,0,0-1.14-.2c-2.48,0-5,0-7.43,0h-.46c.32-.14.64-.41,1-.41,2.33,0,4.65,0,7,0Z"/>
        <path class="cls-112" d="M143.62,36.08a12.32,12.32,0,0,0,1.08.69,7.5,7.5,0,0,0,1.07.37l0-.84,1.32,1.32,1.77,2.19-1.33-.21-1.76-1.1Z"/>
        <path class="cls-113" d="M145.82,38.5l1.76,1.1,1.32,1.54h-1.76c.09-1.2-1-1-1.61-1.33-.75-.5-1.26-.22-1.69.45C143.51,38.78,144.7,38.14,145.82,38.5Z"/>
        <path class="cls-114" d="M147.14,37.62l-1.32-1.32a3.91,3.91,0,0,1-.88-3.52c.28-.81.51-1.65.86-2.42s.89-1.62,1.34-2.43c0,.32,0,.71-.17.94a4.25,4.25,0,0,0-.49,2.81c-.82.68-.4,1.59-.44,2.42l-.22,1.32c.2.32.4.65.59,1S146.9,37.21,147.14,37.62Z"/>
        <path class="cls-115" d="M147.14,31.9l.66-1.32c.36-.53.93-1,1-1.58.12-.8.46-.66.94-.5l.9.31h0v1.54l-1.32.22a2,2,0,0,0-1.76,2.2Z"/>
        <path class="cls-116" d="M150.66,28.81l-.9-.31c-.48-.16-.82-.3-.94.5-.09.57-.66,1.05-1,1.58a6.87,6.87,0,0,1,2-4c.89.46.87,1.23.84,2Z"/>
        <path class="cls-117" d="M150.66,28.81v-.22l.66-2.63a16,16,0,0,1,.65,1.67c.2.75.3,1.52.45,2.29v2c-.14-.25-.44-.53-.4-.74.25-1.22-.53-1.79-1.36-2.34Z"/>
        <path class="cls-118" d="M147.14,31.9l.44.88.66,2.2-1.44-1.77-.76.89c0-.83-.38-1.74.44-2.42Z"/>
        <path class="cls-119" d="M152.43,30.57v-.65q-.22-3.63-.43-7.26l.65.65.88,3.31c-.15,1.32-.29,2.64-.44,4Z"/>
        <path class="cls-120" d="M143,51.93c-1.32-.67-2.66-1.29-3.95-2-2.65-1.45-5.27-2.93-7.9-4.4.05-.28.11-.57.17-.88l1.34.22c.24.39.4.91.74,1.13,1,.64,2.15,1.17,3.23,1.74l3.08,1.53a5,5,0,0,0,.68.7c.86.59,1.75,1.15,2.63,1.73Z"/>
        <path class="cls-121" d="M146.26,59l-1.08-2v-.63l1.74.44c.07,1.18-.18,2.41.72,3.42a11,11,0,0,1,.82,1.2,1.06,1.06,0,0,0,0,.44c.74,1.56,1.48,3.11,2.24,4.66.05.1.25.13.38.18v.45h-.44l-2.86-5.27Z"/>
        <path class="cls-122" d="M146.92,56.76l-1.74-.44c-.44-1-.89-2-1.34-3.08a2.62,2.62,0,0,1,.8,0,5.72,5.72,0,0,1,.94.63l.46.43.24.88.65,1.53Z"/>
        <path class="cls-123" d="M132.61,44.87l-1.34-.22c-.06.31-.12.6-.17.88l-2-1.08,2.4-.23,7,0,0,.38-.43,0c-1,0-2,0-3,0s-1.7.14-2.55.21Z"/>
        <path class="cls-124" d="M145.58,53.91a5.72,5.72,0,0,0-.94-.63,2.62,2.62,0,0,0-.8,0c-.29-.44-.59-.88-.89-1.31l0-.23c.71-.23,1.62.5,2.19-.44l1.11-.88-.25.87A1.65,1.65,0,0,0,145.58,53.91Z"/>
        <path class="cls-125" d="M150.66,67.1h.44l.84,1.52c.4-.28,1-.47,1.16-.85.52-1.06.88-2.2,1.3-3.32l.22-.22h.23c-.8,1.85-1.57,3.71-2.41,5.54-.22.47-.62.47-.9-.05C151.25,68.86,151,68,150.66,67.1Z"/>
        <path class="cls-80" d="M157.7,60.94l-.8.74c-.23.2-.48.39-.73.59l1.53-4,0-.64c.51-.93,1-1.85,1.5-2.81a5,5,0,0,0,.23-1.36l.43,0,2-.89h0c-.9,1.47-1.84,2.91-2.7,4.4a33.87,33.87,0,0,0-1.57,3.13C157.51,60.33,157.66,60.66,157.7,60.94Z"/>
        <path class="cls-126" d="M168.26,48.84l-.23.43c-.85.45-1.68.92-2.54,1.32a9.61,9.61,0,0,1-1.41.44l-.44-.21v-.44h.22c1.1-.49,2.2-1,3.31-1.45a3.89,3.89,0,0,1,1.09-.1Z"/>
        <path class="cls-127" d="M163.64,50.82l.44.21-2.2,1.54-2,.89.66-.88Z"/>
        <path class="cls-128" d="M157.7,58.3l-1.53,4-1.32,2h-.23V62.48l1.1-2.2Z"/>
        <path class="cls-129" d="M166.72,39.81l.86-.11.93-.14.62.42c1.44.59,2.89,1.17,4.31,1.79a3.52,3.52,0,0,1,.79.67c-.33-.12-.66-.24-1-.34a4,4,0,0,0-3.07-.26l1.6,1.5L170,42.67l-2.87-2.19Z"/>
        <path class="cls-130" d="M138.57,44.26l-7,0c.81-.08,1.61-.16,2.42-.22l3.09-.22c2.47,0,4.95,0,7.43,0a6.49,6.49,0,0,1,1.14.2,13.87,13.87,0,0,1-1.7.22C142.12,44.25,140.34,44.25,138.57,44.26Z"/>
        <path class="cls-131" d="M173.31,46.41l-1.32.88-3.73,1.55h0V47.3l1.05-.13c.8-.11,1.6-.2,2.39-.34C172.25,46.73,172.78,46.56,173.31,46.41Z"/>
        <path class="cls-132" d="M171.77,43.34l-1.6-1.5a4,4,0,0,1,3.07.26c.33.1.66.22,1,.34l.41.25c-.08.29-.15.57-.22.86V44h-2Z"/>
        <path class="cls-133" d="M176.6,44.67l-1.29.66h-2.65l-2.86-.23s0-.06,0-.1a.1.1,0,0,1,.05-.08l1.76-.67,2.86-.07h1.3l.44.06Z"/>
        <path class="cls-134" d="M174.42,43.55l.22-.86,1.09.44-1.08.43Z"/>
        <path class="cls-135" d="M174.65,43.56l1.08-.43c.14.37.29.75.44,1.12l-.44-.06Z"/>
        <path class="cls-136" d="M174.41,45.34h.9c0,.07,0,.13,0,.2l-2,.88c-.53.15-1.06.32-1.61.42-.79.14-1.59.23-2.39.34l-1.05.13c-.34.08-.68.14-1,.24-1.13.35-2.25.72-3.38,1.08l-3.73.66,1.75-.89L165,46.86c.31,0,.71.14.91,0,1.37-1,2.75-.79,4.35-.55C171.54,46.5,173,45.7,174.41,45.34Z"/>
        <path class="cls-137" d="M158.36,44a1.52,1.52,0,0,1,.07-.4c1.56,0,1.38-1.83,2.43-2.43.57-.31.9-1,1.15-1.34l-.79-1.31c1.71-.27,2.1.18,2.56,3.07-.64.09-1.29.14-1.92.28-.23,0-.41.31-.61.47a4.52,4.52,0,0,0,.58.39,6.63,6.63,0,0,0,.67.27l-2.38.8-1.55.23A.76.76,0,0,1,158.36,44Z"/>
        <path class="cls-138" d="M162.76,37.62l1.76,1.1c-.08,1.39,1.18,2.05,1.74,3.09.08.15.45.14.68.21l1.47.71-1.69,1.05h-2.86a17.27,17.27,0,0,0,.39-3.18c0-.62-.61-1.22-.94-1.84C163.12,38.38,162.94,38,162.76,37.62Z"/>
        <path class="cls-139" d="M163.86,43.77H170a3.45,3.45,0,0,1-1.08.42c-3.11,0-6.23,0-9.34,0a5.45,5.45,0,0,1-1-.2l1.55-.23Z"/>
        <path class="cls-140" d="M166.94,42c-.23-.07-.6-.06-.68-.21-.56-1-1.82-1.7-1.74-3.09l2.2,1.09.44.67Z"/>
        <path class="cls-141" d="M156.38,40.26c.23.83-.54.87-.95,1.16-.83.6-1.71,1.14-2.57,1.7l-.43-1.54h.43l1.32-.88,1.32-1.1.88-.44Z"/>
        <path class="cls-142" d="M155.5,39.6l-1.32,1.1-.67-.52a6.46,6.46,0,0,0,2.43-3.88h0a10.56,10.56,0,0,1,1-.8,3,3,0,0,1,.79-.3c-.2.46-.38.93-.61,1.38C156.57,37.59,156,38.59,155.5,39.6Z"/>
        <path class="cls-143" d="M156.38,40.26v-1.1c.63-.79,1.22-1.64,2.42-1.54A4.89,4.89,0,0,1,156.38,40.26Z"/>
        <path class="cls-144" d="M155.5,32.56l.66-.22a6.07,6.07,0,0,0-.27,1.25c0,.16.32.34.49.51l-.44,2.2h0l-2.64,1.76-.44-.66a2.88,2.88,0,0,0,1.34-2.84c0-.14.13-.31.2-.46Z"/>
        <path class="cls-145" d="M158.57,44a5.45,5.45,0,0,0,1,.2c3.11,0,6.23,0,9.34,0a3.45,3.45,0,0,0,1.08-.42V42.67l1.74.67.66.66-1.1.2a14,14,0,0,1-1.71.22c-2.21,0-4.42,0-6.64,0-.69,0-1.38,0-2.07,0-1.58-.11-3.15-.24-4.73-.37l0-.08h2.2A.76.76,0,0,0,158.57,44Z"/>
        <path class="cls-146" d="M152.43,41.58l.43,1.54v.44l-.88.22-1.32-1.1-1.76-1.54-1.32-1.54,1.33.21h.43a3.3,3.3,0,0,0,.54.8c.53.43,1.11.79,1.66,1.18a2.87,2.87,0,0,0,.42-1c0-1.88,0-3.76,0-5.64h.44c0,.8,0,1.61,0,2.42Z"/>
        <path class="cls-147" d="M156.18,44.05c1.58.13,3.15.26,4.73.37.69,0,1.38,0,2.07,0v.21h-1.1l-1.32.44h-2.64c-.23-.14-.45-.4-.68-.41-1.31,0-2.62,0-3.93,0v-.41l.45-.23Z"/>
        <path class="cls-148" d="M153.76,44l-.45.23-.43,0a3.68,3.68,0,0,0-.44,1,14.25,14.25,0,0,0,0,1.85h-.21c0-.77.2-1.69-1.1-1.54l.66-1.11.22-.65.88-.22Z"/>
        <path class="cls-149" d="M152.43,30.57h.65l1.76-.66a3.67,3.67,0,0,1-1.32,3.3l-1.1-2Z"/>
        <path class="cls-150" d="M152.42,31.24l1.1,2,.88.88c-.07.15-.23.32-.2.46a2.88,2.88,0,0,1-1.34,2.84l-.43.22c0-.81,0-1.62,0-2.42v-4Z"/>
        <path class="cls-151" d="M148.9,41.14l1.76,1.54c-1.07-.77-1.71.06-2.42.66L146,42l1.1-.88Z"/>
        <path class="cls-152" d="M148.24,43.34c.71-.6,1.35-1.43,2.42-.66l1.32,1.1c-.07.22-.15.43-.22.65l-.79,0c0-1.21-.86-.88-1.53-.81s-1.54.22-2.31.33l.89-.64Z"/>
        <path class="cls-153" d="M147.13,44c.77-.11,1.54-.25,2.31-.33s1.52-.4,1.53.81l-1.39,2,.66-1.77a5.52,5.52,0,0,0-4.42,0h-4.18l-3.09,0,0-.38c1.77,0,3.55,0,5.33,0a13.87,13.87,0,0,0,1.7-.22Z"/>
        <path class="cls-154" d="M149.34,39.82h-.43l-1.77-2.19c-.24-.41-.48-.82-.73-1.22s-.39-.66-.59-1l2.58,1.1.06-1.1h.22l2,4.4Z"/>
        <path class="cls-155" d="M148.46,35.42l-.06,1.1-2.58-1.1L146,34.1l.76-.89L148.24,35Z"/>
        <path class="cls-156" d="M149.34,30.58l1.32-.22v.22c.17.57.32,1.15.5,1.72s.4,1.05.6,1.58c0,1.29-.94,2-1.76,2.86C148.9,34.78,148.09,32.79,149.34,30.58Z"/>
        <path class="cls-157" d="M149.34,30.58c-1.25,2.21-.44,4.2.66,6.16v.88l-1.32-2.2h-.22l-.22-.44-.66-2.2A2,2,0,0,1,149.34,30.58Z"/>
        <path class="cls-158" d="M150.66,30.58V28.82c.83.55,1.61,1.12,1.36,2.34,0,.21.26.49.4.74v3.3H152V33.88A3.12,3.12,0,0,0,150.66,30.58Z"/>
        <path class="cls-159" d="M139.66,49.27l-3.08-1.53V47.3c.47,0,.94,0,1.41,0s.82.13,1.23.2h.22l1.32.22,2.64,2.2c-.4-.11-.81-.19-1.21-.32-.75-.24-1.43-.93-2.31-.34Z"/>
        <path class="cls-160" d="M139.66,49.27h.22a14.48,14.48,0,0,1,2.06,1c1.16.77,2.26,1.12,3.44.11l-.22.88c-.57.94-1.48.21-2.19.44-.88-.58-1.77-1.14-2.63-1.73A5,5,0,0,1,139.66,49.27Z"/>
        <path class="cls-161" d="M136.58,47.3v.44c-1.08-.57-2.19-1.1-3.23-1.74-.34-.22-.5-.74-.74-1.13h0c.72.4,1.75.18,2.2,1.1l1.32.88Z"/>
        <path class="cls-162" d="M151.1,66.66c-.13,0-.33-.08-.38-.18-.76-1.55-1.5-3.1-2.24-4.66a1.06,1.06,0,0,1,0-.44l.6-.87c.24.3.49.6.71.92a8.28,8.28,0,0,1,.45.83l1.1,2.86Z"/>
        <path class="cls-163" d="M151.1,66.66c.07-.51.15-1,.22-1.54l.66,1.54.31.51c.11-.15.29-.29.33-.46.11-.52.17-1,.25-1.58l1.53-.67c-.42,1.12-.78,2.26-1.3,3.32-.18.38-.76.57-1.16.85l-.84-1.52Z"/>
        <path class="cls-164" d="M150.22,62.26a8.28,8.28,0,0,0-.45-.83c-.22-.32-.47-.62-.71-.92l-.6.87a11,11,0,0,0-.82-1.2c-.9-1-.65-2.24-.72-3.42h0l2.41,2.87c.29.59.59,1.18.88,1.76Z"/>
        <path class="cls-165" d="M145.58,53.91a1.65,1.65,0,0,1,.44-2.66l1.12-.87c.13.76.33,1.43,1.33,1.38.21,0,.43.25.65.38l.88,3.08a3.9,3.9,0,0,1-1.07.06c-.58-.1-1.54-.18-1.65-.5-.29-.87-.75-.54-1.24-.44Z"/>
        <path class="cls-166" d="M146,54.34c.49-.1,1-.43,1.24.44.11.32,1.07.4,1.65.5a3.9,3.9,0,0,0,1.07-.06h0l.88,3.52-1.14.58a5.69,5.69,0,0,0-.57-1.25c-.66-.9-1.37-1.78-2.11-2.63-.15-.17-.51-.15-.78-.22Z"/>
        <path class="cls-167" d="M146.28,55.22c.27.07.63.05.78.22.74.85,1.45,1.73,2.11,2.63a5.69,5.69,0,0,1,.57,1.25l1.14-.58V59c.07.22.14.43.22.65h-1.77l-2.41-2.87Z"/>
        <path class="cls-168" d="M136.14,46.86,134.82,46c.28-.15.55-.32.84-.44.81-.3,1.64-.59,2.46-.88l.43,0,3.09,0c.28.15.55.4.83.42.9.05,1.8,0,2.7,0,.15,0,.29.27.43.42h-2c-.91,0-1.82,0-2.73,0-.48,0-1-.42-1.4-.33-1.16.24-2.29.64-3.47,1Z"/>
        <path class="cls-169" d="M138.12,44.66c-.82.29-1.65.58-2.46.88-.29.12-.56.29-.84.44-.45-.92-1.48-.7-2.2-1.1.85-.07,1.7-.18,2.55-.21S137.14,44.66,138.12,44.66Z"/>
        <path class="cls-170" d="M145.16,51.26l.22-.88.66-1.32c1.35.19,1.79-.78,2.2-1.76l1.29-.65h.07a.66.66,0,0,0-.06.2l-3.27,3.54Z"/>
        <path class="cls-171" d="M146.27,50.38l3.27-3.54a3.28,3.28,0,0,1-.33.94c-.66.89-1.37,1.74-2.07,2.6l-1.12.87C146.1,51,146.19,50.67,146.27,50.38Z"/>
        <path class="cls-172" d="M154.4,64.46l-1.53.67c.07-1.4.15-2.8.22-4.19h.65l.88,1.54v1.76Z"/>
        <path class="cls-173" d="M159.47,53.49a5,5,0,0,1-.23,1.36c-.45,1-1,1.88-1.5,2.81a1.18,1.18,0,0,1-1.14-1.34l.44-1.1,1.32-2.2C159,52.65,159.22,53,159.47,53.49Z"/>
        <path class="cls-174" d="M156.6,56.32a1.18,1.18,0,0,0,1.14,1.34c0,.21,0,.43,0,.64l-2,2-.66-.88.22-1.1Z"/>
        <path class="cls-175" d="M159.47,53.49c-.25-.45-.52-.84-1.11-.47v-.66c.88-.65.41-1.44.23-2.19l.43-.23.44.44a1.71,1.71,0,0,0,1.1,2v.22l-.66.88Z"/>
        <path class="cls-176" d="M163.86,48.62c1.13-.36,2.25-.73,3.38-1.08.34-.1.68-.16,1-.24v1.53a3.89,3.89,0,0,0-1.09.1c-1.11.45-2.21,1-3.31,1.45L163,49.5C163.58,49.51,164.28,49.63,163.86,48.62Z"/>
        <path class="cls-177" d="M163,49.5l.88.88h-.22L162.43,50,161,51.7l-.22-1.76C161.46,49.52,162.12,49,163,49.5Z"/>
        <path class="cls-178" d="M161,51.7,162.43,50l1.21.35v.44l-3.08,1.76v-.22Z"/>
        <path class="cls-179" d="M155.06,59.4l.66.88c-.36.74-.73,1.47-1.1,2.2l-.88-1.54C154.85,61,154.43,59.75,155.06,59.4Z"/>
        <path class="cls-180" d="M170,42.67v1.11h-3.31l1.69-1.05L166.94,42l.22-1.54Z"/>
        <path class="cls-181" d="M171.33,44.2l1.1-.2h2a1.23,1.23,0,0,1,0,.19l-2.86.07Z"/>
        <path class="cls-182" d="M174.43,44.18a1.23,1.23,0,0,0,0-.19c0-.15,0-.29,0-.44h.23l1.08.63Z"/>
        <path class="cls-183" d="M161.88,44.66H163c1.23.36,2.8-.81,3.77.82,0,0,.07,0,.1,0l3-.39,2.86.23a4.2,4.2,0,0,1-.92.2c-2.32,0-4.68-.22-6.78,1.11-.11-1-1-1.26-1.75-1.53C162.77,45,162.32,44.81,161.88,44.66Z"/>
        <path class="cls-184" d="M165,46.64c2.1-1.33,4.46-1.11,6.78-1.11a4.2,4.2,0,0,0,.92-.2h1.75c-1.4.36-2.87,1.16-4.19,1-1.6-.24-3-.45-4.35.55-.2.14-.6,0-.91,0Z"/>
        <path class="cls-185" d="M169.8,45.1l-3,.39s-.09,0-.1,0c-1-1.63-2.54-.46-3.77-.82v-.21c2.22,0,4.43,0,6.64,0a14,14,0,0,0,1.71-.22l.24,0-1.76.67a.1.1,0,0,0-.05.08S169.79,45.07,169.8,45.1Z"/>
        <path class="cls-186" d="M165,46.64v.22l-3.08,1.53-2-.21c-.21-.15-.4-.38-.63-.42-1-.21-2-.36-3.07-.54.07-.23.11-.47.16-.48,1.58-.06,3.25-.44,4.72-.05,1,.28,1,.72,1.51-.45l-2-1.14,1.32-.44c.44.15.89.29,1.33.45C164,45.38,164.85,45.59,165,46.64Z"/>
        <path class="cls-187" d="M163,49.5c-.86-.48-1.52,0-2.2.44l-1.32.44-.44-.44,1.11-.66,3.73-.66C164.28,49.63,163.58,49.51,163,49.5Z"/>
        <path class="cls-188" d="M160.13,49.28l-1.11.66-.43.23-.45-.23c.06-.49.09-.92.82-.93.32,0,.63-.54.94-.83l2,.21Z"/>
        <path class="cls-189" d="M153.3,38.06l2.64-1.76a6.46,6.46,0,0,1-2.43,3.88l.67.52-1.32.88Z"/>
        <path class="cls-190" d="M153.3,38.06l-.44,3.52h-.43v-4l.43-.22Z"/>
        <path class="cls-191" d="M152,33.88V35.2c0,1.88,0,3.76,0,5.64a2.87,2.87,0,0,1-.42,1L150.88,40a3.89,3.89,0,0,0-.88-2.42v-.88c.82-.81,1.73-1.57,1.76-2.86Z"/>
        <path class="cls-192" d="M150.88,40l.66,1.76c-.55-.39-1.13-.75-1.66-1.18a3.3,3.3,0,0,1-.54-.8h1.32Z"/>
        <path class="cls-193" d="M159.9,48.18c-.31.29-.62.82-.94.83-.73,0-.76.44-.82.93l-.44.22c-.35-.36-1-.72-1-1.07,0-1.21-1-1.32-1.64-1.79V46.2c.1-.83.75-.58,1.25-.67s1.08-.29,1.61-.43h2.64l2,1.14c-.48,1.17-.47.73-1.51.45-1.47-.39-3.14,0-4.72.05-.05,0-.09.25-.16.48,1.07.18,2.07.33,3.07.54C159.5,47.8,159.69,48,159.9,48.18Z"/>
        <path class="cls-194" d="M152.88,44.23l.43,0v.41c-.66,1.13-.39,2.33-.23,3.51,0,3.36,0,6.72,0,10.08a6.52,6.52,0,0,0,.21,1.14l-.22.87a3.5,3.5,0,0,1-.42-1c0-1.35,0-2.69,0-4,0-3.13,0-6.26,0-9.39A11,11,0,0,1,152.88,44.23Z"/>
        <path class="cls-183" d="M153.08,48.18c-.16-1.18-.43-2.38.23-3.51,1.31,0,2.62,0,3.93,0,.23,0,.45.27.68.41-.53.14-1.06.33-1.61.43s-1.15-.16-1.25.67c-1.37-.46-1.54-.36-1.54,1v1h-.44Z"/>
        <path class="cls-195" d="M151.1,45.54c1.3-.15,1.1.77,1.1,1.54l-.27,9.77h-.23l-.38-.75a1.22,1.22,0,0,1-.2-.37c-.23-1.78-.48-3.57-.66-5.36S149.7,47,151.1,45.54Z"/>
        <path class="cls-196" d="M151.32,56.1l.38.75h.23l.27-9.77h.21q-.1,5-.2,9.9c0,1,0,2,0,2.94a3.29,3.29,0,0,1-.42,1l-.65-1.32-.22-.65c.86-.5.23-1.33.43-2Z"/>
        <path class="cls-197" d="M151.32,56.1V57l-.45-1.77c-.07-.57-.12-1.15-.21-1.72-.29-1.78-.59-3.55-.88-5.32l-.18-1.54h-.07a.67.67,0,0,0,.05-.19l1.39-2,.79,0-.66,1.11c-1.4,1.45-.82,3.18-.64,4.83s.43,3.58.66,5.36A1.22,1.22,0,0,0,151.32,56.1Z"/>
        <path class="cls-198" d="M152.21,57q.09-4.95.2-9.9a14.25,14.25,0,0,1,0-1.85,3.68,3.68,0,0,1,.44-1,11,11,0,0,0-.23,1.6c0,3.13,0,6.26,0,9.39Z"/>
        <path class="cls-199" d="M145.6,45.54c-.14-.15-.28-.41-.43-.42-.9,0-1.8,0-2.7,0-.28,0-.55-.27-.83-.42h4.18c.87,0,1.75,0,2.61,0,.25,0,.7.54.65.68a9.15,9.15,0,0,1-.84,1.49H148C147.85,45.25,146.65,45.53,145.6,45.54Z"/>
        <path class="cls-200" d="M148.24,46.86a9.15,9.15,0,0,0,.84-1.49c0-.14-.4-.65-.65-.68-.86-.08-1.74,0-2.61,0a5.52,5.52,0,0,1,4.42,0l-.66,1.77a.67.67,0,0,1-.05.19l-1.29.65Z"/>
        <path class="cls-201" d="M150.88,40l-.22-.22-2-4.4,1.32,2.2A3.89,3.89,0,0,1,150.88,40Z"/>
        <path class="cls-157" d="M152,33.88h-.22c-.2-.53-.42-1.05-.6-1.58s-.33-1.15-.5-1.72A3.12,3.12,0,0,1,152,33.88Z"/>
        <path class="cls-202" d="M136.14,46.86l-.12-.69c1.18-.34,2.31-.74,3.47-1,.42-.09.92.3,1.4.33.91.06,1.82,0,2.73,0V46H141.2c-.72,0-1.45,0-2.17,0-.27,0-.68.22-.74.42s.21.54.4.76a1.79,1.79,0,0,0,.53.34c-.41-.07-.82-.17-1.23-.2s-.94,0-1.41,0Z"/>
        <path class="cls-203" d="M143.4,49.94l-2.64-2.2H141l1.1.44c1.06,1.62,2.74,1.35,3.08,0,1-.57,1-1.34.44-2.2a2,2,0,0,1,.54,0c.36.09.7.22,1.05.34-.15.35-.28.7-.45,1s-.32.55-.48.82l-.44.66Z"/>
        <path class="cls-204" d="M143.4,49.94l2.42-1.1.22.22-.66,1.32c-1.18,1-2.28.66-3.44-.11a14.48,14.48,0,0,0-2.06-1c.88-.59,1.56.1,2.31.34C142.59,49.75,143,49.83,143.4,49.94Z"/>
        <path class="cls-205" d="M141,47.74h-.22l-1.32-.22c0-.7.23-1.15,1.05-1.12.23,0,.47-.27.71-.42h3.08c-.76.44-1.52.89-2.3,1.31C141.66,47.47,141.32,47.59,141,47.74Z"/>
        <path class="cls-206" d="M141.2,46c-.24.15-.48.42-.71.42-.82,0-1.05.42-1.05,1.12h-.22a1.79,1.79,0,0,1-.53-.34c-.19-.22-.46-.56-.4-.76s.47-.4.74-.42C139.75,45.94,140.48,46,141.2,46Z"/>
        <path class="cls-207" d="M150.22,62.26v-.88c.35.49.72,1,1.05,1.45s.47.8.71,1.2v2.63l-.66-1.54C151,64.17,150.59,63.22,150.22,62.26Z"/>
        <path class="cls-208" d="M152,66.66V64c-.07-1-.15-2.06-.22-3.09a3.29,3.29,0,0,0,.42-1c.06-1,0-2,0-2.94l.42-1.76c0,1.35,0,2.69,0,4a3.5,3.5,0,0,0,.42,1v.67c-.07,1.39-.15,2.79-.22,4.19-.08.53-.14,1.06-.25,1.58,0,.17-.22.31-.33.46Z"/>
        <path class="cls-209" d="M151.76,60.94c.07,1,.15,2.06.22,3.09-.24-.4-.45-.81-.71-1.2s-.7-1-1.05-1.45-.59-1.17-.88-1.76h1.77Z"/>
        <path class="cls-210" d="M149.6,46.64l.18,1.54v1.2c0,1,.69,2.11-.66,2.76-.22-.13-.44-.39-.65-.38-1,.05-1.2-.62-1.33-1.38.7-.86,1.41-1.71,2.07-2.6a3.28,3.28,0,0,0,.33-.94A.66.66,0,0,1,149.6,46.64Z"/>
        <path class="cls-211" d="M149.12,52.14c1.35-.65.66-1.79.66-2.76v-1.2c.29,1.77.59,3.54.88,5.32.09.57.14,1.15.21,1.72H150C149.71,54.19,149.41,53.17,149.12,52.14Z"/>
        <path class="cls-212" d="M150,55.22h.87l.45,1.77c-.2.65.43,1.48-.43,2v-.23C150.58,57.57,150.29,56.4,150,55.22Z"/>
        <path class="cls-213" d="M144.28,46h-.66v-.44h2c1.05,0,2.25-.29,2.42,1.32a9.71,9.71,0,0,1-.81.76,9.88,9.88,0,0,1-1,.56c.16-.27.34-.54.48-.82s.3-.68.45-1c-.35-.12-.69-.25-1.05-.34a2,2,0,0,0-.54,0Z"/>
        <path class="cls-214" d="M146.26,48.18a9.88,9.88,0,0,0,1-.56,9.71,9.71,0,0,0,.81-.76h.22v.44c-.41,1-.85,2-2.2,1.76l-.22-.22Z"/>
        <path class="cls-215" d="M153.09,60.94v-.67c.07-.29.15-.58.22-.87s.29-.29.44-.44l.88-1.1.66.44-.22,1.1c-.63.35-.21,1.6-1.32,1.54Z"/>
        <path class="cls-216" d="M155.28,58.3l-.66-.44c.3-.88.59-1.76.88-2.64H157l-.44,1.1Z"/>
        <path class="cls-217" d="M157,55.22h-1.32l.44-1.1c.72-.6,1-1.78,2.2-1.76V53Z"/>
        <path class="cls-218" d="M158.36,52.36c-1.22,0-1.48,1.16-2.2,1.76h0l1.23-2.31.27.1-.39-.86.43-.89.44-.22.45.23C158.77,50.92,159.24,51.71,158.36,52.36Z"/>
        <path class="cls-219" d="M159.46,50.38l1.32-.44L161,51.7l-.44.66A1.71,1.71,0,0,1,159.46,50.38Z"/>
        <path class="cls-220" d="M157.7,50.16c-.14.29-.29.59-.43.89-1.34.27-1.73-1-2.53-1.57-.32-.23-.66-.43-1-.64v-.66l1.32-.88c.67.47,1.66.58,1.64,1.79C156.69,49.44,157.35,49.8,157.7,50.16Z"/>
        <path class="cls-221" d="M155.06,47.3l-1.32.88h-.22v-1c0-1.36.17-1.46,1.54-1Z"/>
        <path class="cls-222" d="M153.74,59c-.15.15-.3.29-.44.44a6.52,6.52,0,0,1-.21-1.14c0-3.36,0-6.72,0-10.08h.22c0,2.4,0,4.81,0,7.22a6.58,6.58,0,0,0,.21,1.13l.22.44Z"/>
        <path class="cls-223" d="M153.52,56.54a6.58,6.58,0,0,1-.21-1.13c0-2.41,0-4.82,0-7.22h.44V51a6.07,6.07,0,0,0-.21,1C153.51,53.56,153.52,55.05,153.52,56.54Z"/>
        <path class="cls-224" d="M144.28,46h1.32c.51.86.55,1.63-.44,2.2h-3.08l-1.1-.44c.34-.15.68-.27,1-.45C142.76,46.87,143.52,46.42,144.28,46Z"/>
        <path class="cls-225" d="M142.08,48.18h3.08C144.82,49.53,143.14,49.8,142.08,48.18Z"/>
        <path class="cls-226" d="M153.74,59V57l1.76-1.76c-.29.88-.58,1.76-.88,2.64Z"/>
        <path class="cls-218" d="M155.5,55.22,153.74,57l-.22-.44c0-1.49,0-3,0-4.47a6.07,6.07,0,0,1,.21-1c.26.81.47,1.63.79,2.41s.82,1.1,1.63.67h0c-.14.37-.29.73-.44,1.1Z"/>
        <path class="cls-227" d="M156.16,54.12c-.81.43-1.34.06-1.63-.67s-.53-1.6-.79-2.41v-2.2c.34.21.68.41,1,.64.8.59,1.19,1.84,2.53,1.57l.39.86-.27-.1Z"/>
      </g>
    </g>
  </g>
</svg>
