<?xml version="1.0" encoding="UTF-8"?>
<svg id="_Слой_2" data-name="Слой 2" xmlns="http://www.w3.org/2000/svg" viewBox="0 0 267.31 244.33">
  <defs>
    <style>
      .cls-1 {
        fill: #fff;
      }

      .cls-2 {
        fill: #7caac8;
      }
    </style>
  </defs>
  <g id="melnica">
    <g>
      <path class="cls-1" d="m130.76,101.89s-21.91-47.36-27.29-60.63C85.26-3.7,86.93-9.87,57.72,12.86c-30,23.35-23.01,24.41,10.55,53.09,33.56,28.69,50.63,43.43,50.63,43.43,0,0,4.18-8.05,11.86-7.5"/>
      <path class="cls-1" d="m115.12,113.36s-51.13-10.46-65-14C3.12,87.36-.85,82.36.12,119.36s6,33,49,23,65-15,65-15c0,0-4-8.14,1-14"/>
      <path class="cls-1" d="m117.75,134.95s-39.15,34.5-50.34,43.44c-37.9,30.28-44.28,30.44-14.17,51.95,30.93,22.1,29.95,15.1,47.88-25.25s27.2-60.91,27.2-60.91c0,0-8.91-1.71-10.57-9.23"/>
      <path class="cls-1" d="m137.63,143.82s23.15,46.77,28.88,59.89c19.4,44.46,17.9,50.67,46.49,27.17s22.35-25.01-11.95-52.79c-34.3-27.79-51.76-42.08-51.76-42.08,0,0-3.96,8.16-11.66,7.81"/>
      <path class="cls-1" d="m152.18,129.99s51.15,10.36,65.03,13.88c47.02,11.91,51.01,16.91,49.96-20.09-1.07-38-6.06-32.99-49.04-22.91-42.98,10.08-64.97,15.12-64.97,15.12,0,0,4.02,8.13-.97,14"/>
      <path class="cls-1" d="m149.98,112.09s37.48-36.31,48.24-45.76c36.43-32.03,42.8-32.49,11.7-52.56-31.94-20.62-30.63-13.67-46.64,27.47s-24.3,62.13-24.3,62.13c0,0,8.98,1.29,10.99,8.73"/>
      <path class="cls-2" d="m15.12,98.36s-5,11-4,19c3-2,5-4,5-4l-1-15Z"/>
      <path class="cls-2" d="m17.48,139.37s-5.7-9.77-5.58-17.33c2.96,1.57,5,3.24,5,3.24l.58,14.09Z"/>
      <polyline class="cls-2" points="26.12 119.36 30.12 115.36 33.12 118.36 36.12 116.36 70.77 120.04 36.12 122.36 33.12 120.36 31.12 123.36 26.12 119.36"/>
      <path class="cls-2" d="m45.53,205.72s5.77,10.62,12.75,14.64c.21-3.6-.18-6.4-.18-6.4l-12.57-8.24Z"/>
      <path class="cls-2" d="m79.67,228.54s-11.23-1.34-17.19-5.99c3.04-1.42,5.6-2.04,5.6-2.04l11.59,8.03Z"/>
      <polyline class="cls-2" points="68.91 209.59 68.13 203.99 72.33 203.4 72.54 199.8 96.35 174.36 77.33 203.42 73.93 204.61 75.12 208.01 68.91 209.59"/>
      <path class="cls-2" d="m187.22,231.94s11.75-2.81,17.45-8.51c-3.42-1.14-6.23-1.49-6.23-1.49l-11.22,10Z"/>
      <path class="cls-2" d="m218.13,204.9s-4.21,10.49-10.25,15.04c-.58-3.3-.51-5.93-.51-5.93l10.76-9.11Z"/>
      <polyline class="cls-2" points="197.03 210.36 191.42 209.66 191.95 205.45 188.52 204.32 170.14 174.72 193.26 200.63 193.52 204.23 197.12 203.96 197.03 210.36"/>
      <path class="cls-2" d="m252.21,144.8s4.98-11.01,3.96-19.01c-3,2.01-4.99,4.01-4.99,4.01l1.03,15Z"/>
      <path class="cls-2" d="m249.78,103.8s5.71,9.76,5.61,17.31c-2.96-1.56-5-3.23-5-3.23l-.6-14.09Z"/>
      <polyline class="cls-2" points="241.17 123.82 237.18 127.83 234.17 124.84 231.18 126.84 196.52 123.23 231.17 120.84 234.17 122.84 236.16 119.83 241.17 123.82"/>
      <path class="cls-2" d="m218.79,38s-6.26-10.34-13.43-14.02c-.04,3.61.48,6.39.48,6.39l12.95,7.64Z"/>
      <path class="cls-2" d="m183.61,16.81s11.28.81,17.45,5.17c-2.97,1.56-5.49,2.3-5.49,2.3l-11.96-7.47Z"/>
      <polyline class="cls-2" points="195.24 35.23 196.29 40.79 192.12 41.57 192.08 45.18 169.49 71.71 187.12 41.79 190.47 40.44 189.12 37.1 195.24 35.23"/>
      <path class="cls-2" d="m83.52,12.48s-11.82,2.5-17.67,8.05c3.39,1.23,6.19,1.65,6.19,1.65l11.48-9.7Z"/>
      <path class="cls-2" d="m51.91,38.7s4.48-10.38,10.64-14.77c.49,3.31.36,5.94.36,5.94l-11,8.82Z"/>
      <polyline class="cls-2" points="73.14 33.79 78.73 34.64 78.1 38.84 81.49 40.07 99.08 70.14 76.66 43.63 76.49 40.02 72.89 40.19 73.14 33.79"/>
      <circle class="cls-1" cx="133.12" cy="123.36" r="14"/>
      <circle class="cls-2" cx="133.12" cy="123.36" r="9"/>
      <circle class="cls-1" cx="133.12" cy="123.36" r="6"/>
    </g>
  </g>
</svg>