<?xml version="1.0" encoding="UTF-8"?>
<svg id="_Слой_2" data-name="Слой 2" xmlns="http://www.w3.org/2000/svg" viewBox="0 0 434.56 436.56">
  <defs>
    <style>
      .cls-1 {
        fill: #fff;
      }

      .cls-2 {
        fill: #7caac8;
      }

      .cls-3 {
        fill: #98d0f8;
        opacity: .54;
      }

      .cls-4 {
        fill: #85c5f2;
        opacity: .51;
      }

      .cls-5 {
        fill: #c0d4e8;
      }
    </style>
  </defs>
  <g id="melnica">
    <g>
      <rect class="cls-3" x="77.79" y="77.1" width="279.91" height="281.43" transform="translate(-90.24 217.76) rotate(-45)"/>
      <rect class="cls-4" x="84.47" y="84.33" width="265.46" height="266.98" transform="translate(-90.4 217.38) rotate(-45)"/>
      <rect class="cls-5" x="99.31" y="99.85" width="236.55" height="236.55" transform="translate(-90.51 217.75) rotate(-45)"/>
      <rect class="cls-2" x="107.1" y="108.31" width="220.44" height="219.96" transform="translate(-90.71 217.6) rotate(-45)"/>
      <polygon class="cls-5" points="146.45 194.43 175.18 186.94 196.02 205.14 146.45 194.43"/>
      <polyline class="cls-5" points="166.4 234.81 196.78 228.17 160.78 258.78 165.78 234.78"/>
      <polygon class="cls-5" points="236.09 228.28 284.98 239.29 258.4 246.94 236.09 228.28"/>
      <polygon class="cls-5" points="201.13 152.09 217.66 196.36 228.71 171.38 201.13 152.09"/>
      <polygon class="cls-5" points="237.27 206.51 272.17 175.07 268.5 198.25 237.27 206.51"/>
      <rect class="cls-3" x="211.28" y="2.28" width="11" height="11" transform="translate(57.99 155.56) rotate(-45)"/>
      <rect class="cls-3" x="212.28" y="423.28" width="11" height="11" transform="translate(-239.41 279.58) rotate(-45)"/>
      <rect class="cls-3" x="2.28" y="211.28" width="11" height="11" transform="translate(-151.01 68.99) rotate(-45)"/>
      <rect class="cls-3" x="421.28" y="213.28" width="11" height="11" transform="translate(-29.7 365.86) rotate(-45)"/>
      <path class="cls-5" d="m192.58,327.36v-26.96c0-1.94.36-3.86,1.07-5.66l19.78-50.55s1.69-2.45,4.17-1.42c.94.39,1.61,1.22,1.94,2.18,2.85,8.24,16.06,42.13,19.45,50.8.52,1.34.79,2.77.79,4.21l-.05,27.4-3.63,1.77s4.69-38.35-19.31-39.35c0,0-23-3-20,39.35l-4.2-1.77Z"/>
      <path class="cls-5" d="m201.78,332.78s-1.5-25.5,1.17-29.49c3.35-5.01,15.33-14.01,26.82.04,3.84,4.7,1.1,29.45,1.1,29.45l-6.1,4s5.5-25.5-.09-31.47c-2.49-2.67-9.13-7.98-15.64-.2-5.77,6.18-1.07,31.68-1.07,31.68l-6.2-4Z"/>
      <path class="cls-2" d="m209.78,282.72v-7.59c0-.87.32-1.71.89-2.37l4.18-4.78c.99-1.13,2.78-1.07,3.68.14l3.51,4.68c.48.64.74,1.41.74,2.21v8.05c0,.95-.77,1.72-1.72,1.72h-9.22c-1.13,0-2.05-.92-2.05-2.05Z"/>
      <path class="cls-1" d="m217.66,103.21l-6.3,13.6c-.32.73-.93,1.31-1.69,1.61l-11.71,4.07c-.67.26-.71,1.17-.07,1.5l12.22,5.01c.69.35,1.23.93,1.51,1.63l5.32,12.27c.29.74,1.36.75,1.68.02l5.07-12.01c.23-.53.66-.96,1.2-1.19l12.74-5.06c.63-.28.64-1.14.03-1.43l-12.09-4.74c-.87-.41-1.53-1.14-1.86-2.02l-4.74-13.23c-.21-.58-1.05-.6-1.3-.04Z"/>
    </g>
  </g>
</svg>